<?xml version="1.0" standalone="no"?>
<!DOCTYPE svg PUBLIC "-//W3C//DTD SVG 1.1//EN" "http://www.w3.org/Graphics/SVG/1.1/DTD/svg11.dtd" >
<svg>
<metadata>
Created by FontForge 20090914 at Mon Mar 22 17:32:28 2021
 By www-data
(c) 1998-2012 Typodermic Fonts Inc. See attached license agreement. If agreement is missing visit typodermicfonts.com for more info.
</metadata>
<defs>
<font id="KarmaFuture-Regular" horiz-adv-x="576" >
  <font-face 
    font-family="Karma Future"
    font-weight="400"
    font-stretch="normal"
    units-per-em="1000"
    panose-1="4 1 4 0 0 0 0 0 0 0"
    ascent="882"
    descent="-118"
    x-height="499"
    cap-height="749"
    bbox="5 -236 841 964"
    underline-thickness="20"
    underline-position="-123"
    unicode-range="U+0020-U+FB02"
  />
<missing-glyph horiz-adv-x="452" 
d="M129 0c-64.667 0 -97 28 -97 84v488c0 56.667 32.333 85 97 85h193c65.333 0 98 -28.333 98 -85v-488c0 -56 -32.667 -84 -98 -84h-193zM368 572c0 26 -15.333 39 -46 39h-193c-30.667 0 -46 -13 -46 -39v-488c0 -26 15.333 -39 46 -39h193c30.667 0 46 13 46 39v488z
" />
    <glyph glyph-name=".notdef" horiz-adv-x="452" 
d="M129 0c-64.667 0 -97 28 -97 84v488c0 56.667 32.333 85 97 85h193c65.333 0 98 -28.333 98 -85v-488c0 -56 -32.667 -84 -98 -84h-193zM368 572c0 26 -15.333 39 -46 39h-193c-30.667 0 -46 -13 -46 -39v-488c0 -26 15.333 -39 46 -39h193c30.667 0 46 13 46 39v488z
" />
    <glyph glyph-name="space" unicode=" " horiz-adv-x="226" 
 />
    <glyph glyph-name="exclam" unicode="!" horiz-adv-x="307" 
d="M278 632l16 -78v-340h-40v-150h-3l3 -15v-185h-165l-19 90h-3v190h5l-2 9h-3v61h-18l-18 89h-3v346h39v100h172v-17l15 -83h24v-17zM192 98h-78v-98h78v98zM232 603h-40v100h-78v-100h-40v-254h40v-149h78v149h40v254z" />
    <glyph glyph-name="quotedbl" unicode="&#x22;" horiz-adv-x="444" 
d="M386 632l16 -78v-285h-325l-19 90h-3v290h331v-17zM180 603h-78v-198h78v198zM340 603h-78v-198h78v198z" />
    <glyph glyph-name="numbersign" unicode="#" horiz-adv-x="583" 
d="M559 533l16 -79v-135h-79v-105h-3l3 -15v-135h-81v-150h-329l-19 90h-2v60h-19l-17 89h-4v141h79v25h-18l-19 90h-2v140h119v150h336v-17l15 -78v-55h24v-16zM313 349v-99h-83v98h45v105h78v-104h-40zM513 503h-40v150h-80v-150h-80v150h-83v-150h-119v-48h78v-107h-38
v-100h-80v-48h40v-150h80v150h84v-150h78v150h81v48h-38v101h38v106h79v48z" />
    <glyph glyph-name="dollar" unicode="$" horiz-adv-x="469" 
d="M337 649h64v-17l7 -33h33v-17l16 -78v-135h-15l15 -73v-282h-40v-50h-80v-100h-166l-18 90h-3v10h-63l-10 50h-30l-17 90h-4v140h17l-13 61l-4 1v293h40v50h84v100h171v-17l16 -78v-5zM276 200v98h38v-98h-38zM152 405v98h43v-98h-43zM395 348l-40 2v53h-80v102h120v48
h-40v50h-80v100h-79v-100h-84v-50h-40v-204l40 -2v-47h84v-102h-124v-48h40v-50h84v-100h79v100h80v50h40v198z" />
    <glyph glyph-name="percent" unicode="%" horiz-adv-x="611" 
d="M563 632l16 -78v-235h-38v-50h-40v-55h-41v-20h63v-16l16 -79v-235h-206l-19 90h-2v60h-11v-50h-40v-50h-45v-50h-167l-18 90h-3v190h39v50h38v50h45v25h-61l-19 90h-3v240h216v-17l16 -78v-55h11v50h39v50h40v50h41v50h133v-17zM477 148h-119v-148h119v148zM237 553
h-123v-148h123v148zM517 603h-41v-50h-41v-50h-39v-50h-40v-50h-40v-55h-40v-50h-40v-50h-40v-50h-44v-50h-38v-50h-40v-98h80v50h45v50h40v50h40v50h40v50h40v50h39v49h41v56h40v50h38v148z" />
    <glyph glyph-name="ampersand" unicode="&#x26;" horiz-adv-x="520" 
d="M386 294h103v-17l16 -78v-137h-14l14 -67v-131h-405l-10 48h-30l-17 90h-4v342h40v255h39v50h40v50h212v-17l6 -33h35v-17l16 -78v-235h-41v-25zM246 455v-50h-42v148h38v50h41v-148h-37zM243 100v-50h-39v50h-39v148h78v-100h40v-48h-40zM443 48l-40 4v46h-38v52h38v48
h40v50h-81v-48h-38v48h-41v157h41v50h41v148h-41v50h-120v-50h-39v-50h-40v-148h40v-57h-40v-50h-40v-250h40v-48h158v48h79v-48h81v48z" />
    <glyph glyph-name="quotesingle" unicode="'" horiz-adv-x="320" 
d="M264 732l16 -78v-335h-40v-50h-165l-19 90h-2v140h4l-2 9h-2v241h210v-17zM218 703h-118v-148h40v-102h-40v-48h78v50h40v248z" />
    <glyph glyph-name="parenleft" unicode="(" horiz-adv-x="425" 
d="M377 80l16 -79v-137h-207l-10 51l-28 2l-9 47h-31l-18 90h-3v10h-19l-18 89h-3v396h40v100h40v50h38v50h212v-17l16 -78v-135h-80v-100h-37v-225h22v-16l15 -82h64v-16zM331 50h-80v98h-37v407h37v100h80v48h-120v-50h-38v-50h-40v-100h-40v-303h40v-100h40v-50l38 -3
v-47h120v50z" />
    <glyph glyph-name="parenright" unicode=")" horiz-adv-x="390" 
d="M360 533l15 -79v-390h-40v-100h-40v-50h-39v-50h-206l-18 90h-3v140h79v100h37v225h-16l-18 89h-3v9h-58l-18 89h-3v143h211v-17l7 -35l32 -1v-17l6 -30h34v-17l16 -83h25v-16zM313 503h-40v100h-40v50l-39 2v48h-119v-50h79v-98h37v-407h-37v-100h-79v-48h119v50h39v50
h40v100h40v303z" />
    <glyph glyph-name="asterisk" unicode="*" horiz-adv-x="514" 
d="M58 54h-3v186h6l-3 13h-3v141h7l-4 17l-3 1v187h411v-17l16 -78v-180l-6 -1l6 -24v-135h-4l4 -19v-181h-405zM420 198l-40 4v46h-38v52h78v48h-78v57h38v45l40 5v98h-81v-98h-39v98h-78v-98h-40v98h-80v-98l39 -4v-46h38v-57h-77v-48h77v-52h-38v-46l-39 -4v-98h80v98h40
v-98h78v98h39v-98h81v98z" />
    <glyph glyph-name="plus" unicode="+" horiz-adv-x="443" 
d="M429 377l16 -78v-185h-121v-150h-169l-18 90h-3v60h-99l-17 89h-4v191h120v155h175v-16l15 -79v-60h105v-17zM383 348h-120v155h-83v-155h-120v-98h120v-150h83v150h120v98z" />
    <glyph glyph-name="comma" unicode="," horiz-adv-x="322" 
d="M265 178l16 -79v-285h-40v-50h-165l-19 90h-2v340h210v-16zM219 148h-118v-148h40v-52h-40v-48h78v50h40v198z" />
    <glyph glyph-name="hyphen" unicode="-" horiz-adv-x="527" 
d="M471 377l15 -78v-185h-409l-19 89h-3v191h416v-17zM424 348h-322v-98h322v98z" />
    <glyph glyph-name="period" unicode="." horiz-adv-x="329" 
d="M271 178l16 -79v-235h-210l-19 90h-3v240h216v-16zM225 148h-123v-148h123v148z" />
    <glyph glyph-name="slash" unicode="/" horiz-adv-x="549" 
d="M540 682l16 -78v-235h-38v-50h-40v-50h-40v-55h-40v-50h-40v-50h-40v-50h-44v-50h-40v-50h-40v-50h-168l-18 90h-3v190h39v50h38v50h40v50h41v50h44v55h40v50h40v50h39v50h40v50h41v50h133v-17zM494 653h-41v-50h-41v-50h-39v-50h-40v-50h-40v-50h-40v-55h-44v-50h-41
v-50h-39v-50h-38v-50h-40v-98h81v50h40v50h40v50h44v50h40v50h40v49h40v56h40v50h40v50h38v148z" />
    <glyph glyph-name="zero" unicode="0" horiz-adv-x="639" 
d="M587 582l16 -78v-490h-40v-100h-85v-50h-285l-10 50h-70l-19 90h-2v10h-19l-18 90h-3v495h40v100h80v50h290v-17l7 -33h78v-17l16 -83h24v-17zM376 505v-50h-39v-50h-40v-56h-40v-49h-38v-50h-41v303h37v50h201v-98h-40zM416 150v-50h-198v98h40v50h40v50h40v50h40v55h37
v50h45v-303h-44zM541 553h-40v100h-85v50h-198v-50h-79v-100h-41v-403h40v-100h80v-50h198v50h85v100h40v403z" />
    <glyph glyph-name="one" unicode="1" horiz-adv-x="473" 
d="M449 128l16 -79v-185h-410l-17 90h-4v190h120v225h-99l-17 90h-4v190h81v50h39v50h176v-17l16 -78v-510h103v-16zM403 98h-119v605h-83v-50h-40v-50h-81v-98h121v-407h-121v-98h323v98z" />
    <glyph glyph-name="two" unicode="2" horiz-adv-x="627" 
d="M582 630l16 -79v-229l-40 -3v-50h-38v-55h-38v-50h-41v-20h141v-16l16 -79v-185h-529l-18 90h-3v190h40v50h38v50h39v50h40v21l-136 6l-18 89h-3v236l40 2v51h38v50h378v-17l6 -33h33v-17l6 -35l33 -1v-16zM536 603l-40 3v47h-38v50h-286v-50h-38v-47l-40 -3v-148l82 -3
v103h38v47h202v-47h39v-52h-39v-47h-40v-53h-40v-55h-40v-50h-45v-50h-39v-50h-40v-50h-38v-50h-40v-98h442v98h-281v52h44v50h40v50h40v50h41v49h38v56h38v47l40 3v148z" />
    <glyph glyph-name="three" unicode="3" horiz-adv-x="642" 
d="M588 630l16 -79v-282h-14l14 -68v-239h-40v-48h-39v-50h-373l-11 50h-27l-10 48h-30l-19 90h-2v192h121l-2 7h-3v118h-95l-19 90h-2v187l39 2v51h38v50h379v-17l7 -33h32v-17l7 -35l33 -1v-16zM542 603l-40 3v47h-39v50h-286v-50h-38v-47l-40 -3v-98h81v50h39v47h204v-47
h37v-102h-37v-50h-208v-105h207v-48l38 -3v-99h-37v-50l-204 5v45h-39v50h-81v-100h40v-48h38v-50h286v50h39v48h40v152h-40v48l-39 2v49h39v56h40v198z" />
    <glyph glyph-name="four" unicode="4" horiz-adv-x="575" 
d="M545 327l16 -78v-185h-79v-200h-166l-18 90h-3v110h-264l-17 89h-4v296h41v50h40v50h44v50h40v50h39v50h40v50h212v-17l16 -78v-310h63v-17zM137 300v44l44 4v55h40v50h40v50h39v50h39v-253h-202zM499 298h-79v405h-120v-50h-39v-50h-40v-50h-40v-50h-44v-50h-40v-50h-41
v-203h285v-200h79v200h79v98z" />
    <glyph glyph-name="five" unicode="5" horiz-adv-x="631" 
d="M584 374l16 -78v-334h-40v-48h-39v-50h-369l-11 50h-31l-10 48h-30l-18 90h-3v192h54l-4 23h-29l-18 90h-3v392h535v-17l16 -78v-185h-92l4 -22h33v-18l6 -37l33 -1v-17zM538 348l-40 2v53l-39 3v47h-280v152h359v98h-443v-300h40v-55h285v-48h36v-152h-36v-50l-202 5v45
h-39v50h-84v-100h40v-48h42v-50h282v50h39v48h40v250z" />
    <glyph glyph-name="six" unicode="6" horiz-adv-x="605" 
d="M569 327l15 -78v-285h-39v-50h-40v-50h-365l-11 50h-29l-10 50h-35l-17 90h-4v395h45v100h39v50h38v50h40v50h40v50h253v-17l16 -78v-185h-120v-20h104v-16l7 -39h33v-17l6 -33h34v-17zM403 150v-50h-199v50h-39v98h39v50h199v-50h40v-98h-40zM522 298h-39v50h-40v55
h-238v52h40v50h41v50h37v50h120v98h-161v-50h-40v-50h-40v-50h-37v-50h-40v-100h-45v-303h45v-50h40v-50h278v50h40v50h39v198z" />
    <glyph glyph-name="seven" unicode="7" horiz-adv-x="575" 
d="M559 732l16 -78v-185h-44v-100h-40v-100h-38v-105h-40v-100h-40v-100h-39v-100h-169l-18 90h-3v190h41v100h37v100h41v105h39v20h-256l-17 89h-4v191h534v-17zM513 703h-442v-98h317v-102h-39v-100h-40v-105h-41v-100h-37v-100h-41v-98h82v100h40v100h39v100h40v105h38
v100h40v100h44v98z" />
    <glyph glyph-name="eight" unicode="8" horiz-adv-x="613" 
d="M574 327l16 -78v-285h-45v-50h-39v-50h-365l-11 50h-29l-10 50h-31l-17 90h-4v290h41v305h39v50h40v50h291v-17l7 -33h33v-17l6 -33h34v-17l15 -78v-210h29v-17zM363 455v-50h-118v50h-40v98h40v50h118v-50h41v-98h-41zM404 150v-50h-199v50h-40v98h40v50h199v-50h40v-98
h-40zM528 298h-44v50h-40v57h40v198h-40v50h-40v50h-199v-50h-40v-50h-39v-198h39v-57h-39v-50h-41v-198h41v-50h39v-50h279v50h40v50h44v198z" />
    <glyph glyph-name="nine" unicode="9" horiz-adv-x="606" 
d="M569 632l16 -78v-390h-40v-100h-44v-50h-38v-50h-40v-50h-39v-50h-248l-19 90h-2v190h120v20h-99l-10 50h-30l-11 55h-29l-17 90h-4v290h40v50h40v50h370v-17l7 -33h38v-17l6 -33h33v-17zM399 455v-50h-198v50h-40v98h40v50h198v-50h40v-98h-40zM523 603h-39v50h-45v50
h-278v-50h-40v-50h-40v-198h40v-56h40v-49h237v-52h-39v-50h-40v-50h-38v-50h-120v-98h161v50h39v50h40v50h38v50h45v100h39v303z" />
    <glyph glyph-name="colon" unicode=":" horiz-adv-x="295" 
d="M267 533l16 -79v-240h-13l13 -65v-235h-206l-19 90h-3v240h15l-12 59h-3v246h212v-16zM221 198h-119v-148h119v148zM221 503h-119v-154h119v154z" />
    <glyph glyph-name="semicolon" unicode=";" horiz-adv-x="299" 
d="M253 533l16 -79v-240h-13l13 -65v-335h-40v-50h-165l-18 90h-3v140h4l-1 10h-3v240h14l-11 59h-3v246h210v-16zM207 503h-118v-154h118v154zM207 198h-118v-148h40v-102h-40v-48h78v50h40v248z" />
    <glyph glyph-name="less" unicode="&#x3c;" horiz-adv-x="477" 
d="M422 129l16 -78v-187h-173l-10 50h-29l-11 51l-29 2l-9 45h-31l-11 53l-27 2l-9 45h-31l-10 50h-29l-18 89h-4v198h40v50h40v50h38v50h40v50h39v50h40v50h178v-17l16 -78v-185h-40v-50h-42v-50h-40v-50h-41v-23h25v-17l7 -33h33v-17l7 -33h36v-17l6 -33h33v-17zM376 100
h-39v50h-43v50h-40v50h-40v48l-39 2v105h39v50h40v50h40v50h42v50h40v98h-86v-50h-39v-50h-40v-50h-40v-50h-38v-50h-40v-50h-39v-105h39v-50h40v-48l38 -3v-49h40v-48l40 -3v-47h39v-50h86v100z" />
    <glyph glyph-name="equal" unicode="=" horiz-adv-x="536" 
d="M510 483l16 -79v-190h-3l3 -15v-185h-449l-19 90h-3v190h5l-2 9h-3v196h455v-16zM464 248h-362v-98h362v98zM464 453h-362v-104h362v104z" />
    <glyph glyph-name="greater" unicode="&#x3e;" horiz-adv-x="476" 
d="M469 435l15 -79v-192h-39v-50h-40v-50h-39v-50h-43v-50h-40v-50h-40v-50h-168l-19 90h-2v190h39v50h38v50h40v50h41v23h-20l-10 50h-29l-12 53l-26 2l-10 45h-30l-19 90h-2v192h173v-17l7 -33h33v-17l7 -35l33 -1v-16l5 -29h38v-18l7 -36l32 -1v-16l6 -29h34v-17l6 -33
h34v-16zM422 405h-39v50h-40v48l-39 3v49h-43v48l-40 3v47h-40v50h-81v-100h40v-48l38 -3v-49h39v-50h41v-48l42 -3v-104h-42v-50h-41v-50h-39v-50h-38v-50h-40v-98h81v50h40v50h40v50h43v50h39v50h40v50h39v105z" />
    <glyph glyph-name="question" unicode="?" horiz-adv-x="532" 
d="M512 630l16 -79v-229l-40 -3v-50h-39v-55h-38v-50h-45v-150h-2v-150h-165l-19 90h-2v361l-139 6l-18 89h-3v236l39 2v51h38v50h339v-17l6 -33h32v-17l7 -35l33 -1v-16zM302 98h-78v-98h78v98zM466 603l-40 3v47h-39v50h-246v-50h-37v-47l-40 -3v-148l80 -3v103h38v47h164
v-47h39v-52h-39v-47h-45v-53h-38v-55h-39v-198h80v150h45v49h38v56h39v47l40 3v148z" />
    <glyph glyph-name="at" unicode="@" horiz-adv-x="643" 
d="M588 584l16 -78v-392h-41v-50h-40v-200h-332l-10 50h-67l-10 51l-30 2l-19 88l-2 1v545h39v98h38v50h378v-17l6 -33h33v-17l16 -81h25v-17zM299 250v203h43v-203h-43zM422 250v303h39v-303h-39zM542 555h-41v98h-40v50h-284v-50h-38v-98h-40v-455l40 -3v-47h77v-50h245
v100h-241v48h-41v402h40v55h203v-50h-163v-52h-43v-303h43v-50h202v50h40v50h41v305z" />
    <glyph glyph-name="A" unicode="A" horiz-adv-x="543" 
d="M516 175l16 -79v-232h-168l-18 90h-3v57h-129v-147h-167l-17 90h-4v237l40 2v151h38v155h41v150h41v100h171v-17l16 -83h24v-17l15 -78v-55h26v-16l16 -79v-60h22v-17l16 -78v-57l24 -1v-16zM191 250v48h41v155h79v-155h39v-48h-159zM470 148l-40 3v147h-38v155h-42v150
h-39v100h-79v-100h-41v-150h-41v-155h-38v-147l-40 -3v-148h81v147h236v-147h81v148z" />
    <glyph glyph-name="B" unicode="B" horiz-adv-x="589" 
d="M551 327l16 -78v-285h-45v-50h-39v-50h-406l-19 90h-3v795h371v-17l7 -33h34v-17l6 -33h34v-17l15 -78v-210h29v-17zM340 455v-50h-158v198h158v-50h40v-98h-40zM380 150v-50h-198v198h198v-50h41v-98h-41zM505 298h-45v50h-39v57h39v198h-39v50h-41v50h-278v-703h319v50
h39v50h45v198z" />
    <glyph glyph-name="C" unicode="C" 
d="M535 630l16 -79v-182h-173l-10 50h-27l-9 47h-25v-47h-38v-50h-40v-123h24v-17l7 -35h31v-16l6 -31h23v47h37v52h178v-17l16 -78v-184l-41 -3v-50h-41v-50h-291l-10 50h-28l-11 51l-28 2l-19 88l-2 1v10l-19 2l-18 89l-3 1v391h40v97l38 2v51h39v50h296v-17l6 -33h36v-17
l6 -35l34 -1v-16zM489 603l-41 3v47h-41v50h-204v-50h-38v-47l-39 -3v-100h-40v-303l40 -5v-95l39 -3v-47h38v-50h204v50h41v47l41 3v100h-86v-52h-37v-47h-121v47h-38v52h-40v305h40v50h38v47h121v-47h37v-50h86v98z" />
    <glyph glyph-name="D" unicode="D" horiz-adv-x="591" 
d="M551 533l16 -79v-390h-41v-100h-40v-50h-44v-50h-365l-19 90h-3v795h371v-17l7 -33h38v-17l6 -33h33v-17l16 -83h25v-16zM380 200v-50h-40v-50h-158v503h158v-50h40v-50h44v-303h-44zM505 503h-41v100h-40v50h-44v50h-278v-703h278v50h44v50h40v100h41v303z" />
    <glyph glyph-name="E" unicode="E" horiz-adv-x="591" 
d="M550 128l16 -79v-185h-489l-19 90h-3v795h495v-17l16 -78v-185h-324v-20h229v-16l15 -79v-190h-244v-20h308v-16zM504 98h-324v202h244v103h-244v202h324v98h-402v-703h402v98z" />
    <glyph glyph-name="F" unicode="F" horiz-adv-x="555" 
d="M550 732l16 -78v-185h-324v-20h229v-16l15 -79v-190h-244v-300h-165l-19 90h-3v795h495v-17zM504 703h-402v-703h78v300h244v103h-244v202h324v98z" />
    <glyph glyph-name="G" unicode="G" horiz-adv-x="590" 
d="M535 682l16 -78v-185h-13l13 -65v-490h-373l-10 50h-28l-11 51l-28 2l-19 88l-2 1v9l-19 2l-18 88l-3 1v393h40v100h38v50h39v50h338v-17l6 -33h34v-17zM489 653h-41v50h-245v-50h-38v-50h-39v-100h-40v-303l40 -3v-97l39 -3v-47h38v-50h286v403h-199v-103h120v-200h-165
v48h-38v50l-40 3v304h40v50h38v50h165v-50h79v98z" />
    <glyph glyph-name="H" unicode="H" horiz-adv-x="606" 
d="M550 732l16 -78v-790h-166l-18 90h-3v210h-137v-300h-165l-19 90h-3v795h172v-17l15 -78v-205h137v300h171v-17zM504 703h-79v-300h-245v300h-78v-703h78v300h245v-300h79v703z" />
    <glyph glyph-name="I" unicode="I" horiz-adv-x="435" 
d="M384 128l15 -79v-185h-329l-18 90h-3v190h84v325h-63l-18 89h-3v191h335v-17l15 -78v-185h-79v-325h64v-16zM337 98h-79v507h79v98h-242v-98h84v-507h-84v-98h242v98z" />
    <glyph glyph-name="J" unicode="J" horiz-adv-x="551" 
d="M499 732l16 -78v-643h-40v-97h-38v-50h-330l-10 50h-31l-11 51l-29 2l-18 88l-3 1v238h177v-17l16 -81h22v-17l7 -33h61v55l38 -3v551h173v-17zM453 703h-80v-555l-38 3v-51h-161v50h-38v98h-85v-148l40 -3v-47h41v-50h243v50h38v97h40v556z" />
    <glyph glyph-name="K" unicode="K" horiz-adv-x="606" 
d="M551 129l16 -78v-187h-169l-10 50h-29l-10 51l-30 2l-9 45h-31l-11 53l-21 1v-202h-170l-19 90h-3v795h176v-17l16 -78v-103h11v50h40v50h39v48h41v50h173v-17l16 -78v-183l-40 -2v-52h-38v-50h-40v-50h-40v-21h25v-17l6 -33h33v-18l7 -35l31 -2v-16l6 -29h34v-17z
M505 100h-40v48l-38 3v49h-40v50h-39v48l-40 2v103h39v50h40v50h40v50h38v49l40 3v98h-81v-50h-40v-48h-40v-50h-40v-50h-38v-50h-39v-50h-42v298h-83v-703h83v298h42v-50h39v-48l38 -3v-49h40v-48l40 -3v-47h39v-50h82v100z" />
    <glyph glyph-name="L" unicode="L" horiz-adv-x="548" 
d="M545 128l16 -79v-185h-484l-19 90h-3v795h172v-17l15 -78v-510h303v-16zM499 98h-319v605h-78v-703h397v98z" />
    <glyph glyph-name="M" unicode="M" horiz-adv-x="606" 
d="M550 732l16 -78v-790h-169l-19 90h-3v160h-133v-250h-165l-19 90h-3v795h172v-17l6 -33h36v-17l16 -83h48v100h42v50h175v-17zM504 703h-82v-50h-43v-100h-40v-97h-76v97h-40v100h-43v50h-78v-703h78v453h39v-104h40v-99h83v99h40v104h40v-453h82v703z" />
    <glyph glyph-name="N" unicode="N" horiz-adv-x="607" 
d="M551 732l16 -78v-790h-170l-11 50h-32l-18 90h-3v10h-19l-10 51l-29 2l-19 88l-3 1v9h-11v-301h-165l-19 90h-3v795h172v-17l6 -33h36v-17l16 -83h24v-17l6 -35l34 -1v-16l16 -83h10v302h176v-17zM505 703h-83v-503h-39v98l-40 2v103l-40 3v97l-40 3v47h-40v100h-43v50
h-78v-703h78v503h40v-98l40 -3v-102l40 -3v-97l39 -3v-47h40v-100h43v-50h83v703z" />
    <glyph glyph-name="O" unicode="O" horiz-adv-x="572" 
d="M533 533l16 -79v-390h-40v-100h-44v-50h-40v-50h-245l-10 50h-30l-11 50h-29l-19 90h-2v10h-19l-17 89h-4v396h40v100h39v50h41v50h251v-17l6 -33h33v-17l7 -33h38v-17l15 -83h24v-16zM363 200v-50h-39v-50h-79v50h-40v50h-40v303h40v50h40v50h79v-50h39v-50h40v-303h-40
zM487 503h-40v100h-44v50h-40v50h-158v-50h-40v-50h-40v-100h-40v-303h40v-100h40v-50h40v-50h158v50h40v50h44v100h40v303z" />
    <glyph glyph-name="P" unicode="P" horiz-adv-x="565" 
d="M551 632l16 -78v-340h-40v-50h-41v-50h-244v-250h-165l-19 90h-3v795h416v-17l6 -33h34v-17l7 -33h33v-17zM380 405v-56h-198v254h198v-50h44v-148h-44zM505 603h-40v50h-41v50h-322v-703h78v250h244v50h41v49h40v254z" />
    <glyph glyph-name="Q" unicode="Q" horiz-adv-x="581" 
d="M509 549h25v-16l16 -79v-390h-4l4 -18v-182h-370l-10 50h-29l-11 51l-30 2l-19 89h-2v8h-19l-17 89h-4v396h40v100h40v50h40v50h255v-17l7 -33h36v-17l6 -33h31v-17l15 -78v-5zM367 200v50h-83v-99l40 -3v-48h-79v47l-40 3v50h-40v303h40v50h40v50h79v-50h46v-50h38v-303
h-41zM488 98l-41 3v99h41v303h-41v100h-37v50h-42v50h-163v-50h-40v-50h-40v-100h-40v-303h40v-100l40 -3v-47h40v-50h163v50h39v-50h81v98z" />
    <glyph glyph-name="R" unicode="R" horiz-adv-x="601" 
d="M551 129l16 -78v-187h-169l-11 50h-28l-10 51l-28 2l-9 45h-36l-10 50h-24v-198h-165l-19 90h-3v795h416v-17l7 -33h32v-17l7 -33h34v-17l16 -78v-340h-41v-50h-13l4 -18h34v-17zM385 405v-56h-203v254h203v-50h39v-148h-39zM505 100h-40v48l-39 3v47l-40 3v49h39v50h39
v49h41v254h-41v50h-39v50h-323v-703h78v250h82v-52h39v-50h45v-48l38 -3v-47h38v-50h83v100z" />
    <glyph glyph-name="S" unicode="S" horiz-adv-x="582" 
d="M539 329l16 -78v-289h-40v-48h-39v-50h-333l-10 50h-28l-10 48h-29l-19 90h-3v192h55l-5 26l-29 2l-19 89h-3v285l41 2v51h38v50h338v-17l7 -33h32v-17l7 -35l33 -1v-16l16 -79v-182h-55l5 -23h34v-17zM493 300h-40v48l-39 2v55h-205v48h-38v102h38v47h165v-47h37v-50h82
v98l-40 3v47h-39v50h-246v-50h-38v-47l-40 -3v-198l40 -3v-53l37 -2v-49h207v-48h37v-102h-37v-50l-165 5v45h-38v50h-80v-100h39v-48h38v-50h246v50h39v48h40v202z" />
    <glyph glyph-name="T" unicode="T" horiz-adv-x="459" 
d="M436 732l16 -78v-185h-119v-605h-166l-18 90h-3v515h-103l-18 89h-4v191h415v-17zM390 703h-323v-98h125v-605h79v605h119v98z" />
    <glyph glyph-name="U" unicode="U" horiz-adv-x="597" 
d="M545 732l16 -78v-636l-40 -4v-100h-37v-50h-334l-10 50h-28l-19 90h-2v12l-19 2l-18 89l-3 1v641h173v-17l15 -78v-458h27v-17l7 -35h62v52h38v553h172v-17zM499 703h-80v-553h-38v-52h-161v52h-42v553h-81v-553l40 -5v-95h38v-50h247v50h37v95l40 5v553z" />
    <glyph glyph-name="V" unicode="V" horiz-adv-x="548" 
d="M521 732l16 -78v-231l-41 -4v-145l-37 -5v-153l-40 -2v-150h-40v-100h-170l-19 90h-2v10h-19l-18 90h-3v61l-19 1l-18 89l-3 1v65l-21 3l-19 88l-2 1v58l-19 2l-17 89l-4 1v236h177v-17l16 -78v-53h25v-17l16 -78v-55h48v150h40v148h173v-17zM475 703h-81v-148h-40v-150
h-40v-154h-76v154h-40v150h-41v148h-85v-148l40 -5v-145l42 -5v-150l40 -3v-147h40v-100h83v100h40v147l41 3v150l37 5v145l40 5v148z" />
    <glyph glyph-name="W" unicode="W" horiz-adv-x="606" 
d="M550 732l16 -78v-790h-166l-10 50h-31l-19 90h-3v10h-49v-100h-41v-50h-170l-19 90h-3v795h176v-17l16 -78v-260h132v355h171v-17zM504 703h-79v-503h-39v48h-39v100h-84v-100h-39v-48h-39v503h-83v-703h83v50h42v100h39v47h77v-47h41v-100h41v-50h79v703z" />
    <glyph glyph-name="X" unicode="X" horiz-adv-x="601" 
d="M545 124l16 -79v-181h-168l-19 90h-2v8h-19l-18 90h-3v10h-48v-100h-40v-98h-168l-19 90h-2v187l39 3v96l38 4v52h40v24l-19 2l-10 48l-27 3l-19 88l-3 1v9l-18 2l-19 89l-2 1v186h173v-17l16 -81h24v-17l16 -83h48v100h40v98h173v-17l16 -78v-181l-40 -4v-96l-37 -4v-52
h-40v-25l24 -1v-17l5 -31l33 -3v-16l15 -82l24 -1v-17zM499 98l-40 4v96l-37 4v46l-40 3v47h-40v107h40v48h40v47l37 5v95l40 5v98h-81v-98h-40v-100h-39v-49h-78v49h-39v100h-40v98h-81v-98l40 -5v-95l37 -4v-46l40 -3v-47h39v-107h-39v-48h-40v-48l-37 -4v-96l-40 -4v-98
h81v98h40v100h39v49h78v-49h39v-100h40v-98h81v98z" />
    <glyph glyph-name="Y" unicode="Y" horiz-adv-x="541" 
d="M518 732l15 -78v-182l-44 -4v-95l-38 -4v-97l-40 -3v-105h-39v-300h-170l-19 90h-3v210h-18l-19 89h-2v17l-19 2l-18 89h-3v10l-17 2l-18 89l-3 1v8l-19 2l-17 89l-4 1v186h173v-17l16 -81h24v-17l15 -83h49v100h40v98h178v-17zM471 703h-85v-98h-39v-100h-40v-99h-77v99
h-40v100h-40v98h-81v-98l40 -5v-95l38 -5v-95l40 -3v-102h40v-300h83v300h39v102l40 3v95l38 5v95l44 5v98z" />
    <glyph glyph-name="Z" unicode="Z" horiz-adv-x="592" 
d="M543 128l15 -79v-185h-489l-18 90h-3v190h40v100h40v50h37v50h40v105h41v20h-177l-18 89h-3v191h495v-17l15 -78v-185h-39v-100h-45v-50h-38v-50h-39v-105h-40v-20h186v-16zM496 98h-281v102h40v50h40v50h40v105h39v50h38v50h45v100h39v98h-402v-98h278v-102h-40v-50h-40
v-50h-41v-105h-39v-50h-38v-50h-40v-100h-40v-98h402v98z" />
    <glyph glyph-name="bracketleft" unicode="[" horiz-adv-x="435" 
d="M391 128l16 -79v-185h-330l-19 90h-3v795h336v-17l16 -78v-185h-160v-325h144v-16zM345 98h-160v507h160v98h-243v-703h243v98z" />
    <glyph glyph-name="backslash" unicode="\" horiz-adv-x="548" 
d="M544 179l15 -78v-187h-167l-10 50h-30l-10 51l-30 2l-9 45h-31l-10 50h-30l-10 50h-30l-10 50h-29l-12 55h-33l-10 50h-30l-10 50h-27l-18 90h-4v242h133v-17l7 -33h33v-17l7 -33h38v-17l6 -35l34 -1v-16l6 -29h34v-17l6 -33h34v-17l7 -42l32 -1v-17l6 -28h34v-17l7 -33
h34v-18l6 -35l31 -2v-16l5 -29h35v-17zM497 150h-39v48l-37 3v49h-41v50h-40v48l-40 2v55h-39v50h-40v48l-41 3v47h-44v50h-40v50h-41v-150h38v-50h40v-50h45v-55h39v-50h40v-50h40v-50h40v-48l40 -3v-47h40v-50h80v100z" />
    <glyph glyph-name="bracketright" unicode="]" horiz-adv-x="431" 
d="M373 732l16 -78v-790h-325l-18 90h-3v190h159v325h-138l-18 89h-3v191h330v-17zM327 703h-238v-98h160v-507h-160v-98h238v703z" />
    <glyph glyph-name="asciicircum" unicode="^" horiz-adv-x="586" 
d="M559 479l16 -79v-186h-167l-11 55h-29l-10 48h-31l-10 50h-19v-50h-40v-48h-40v-55h-172l-17 89h-4v193l40 3v46l41 4v52h41v48h40v50h40v50h135v-17l7 -33h33v-17l7 -33h33v-17l6 -35l34 -1v-17l5 -31l33 -3v-16l5 -31l34 -2v-17zM513 453l-40 4v46l-38 4v46l-39 3v47
h-40v50h-40v50h-43v-50h-40v-50h-40v-48h-40v-48l-42 -4v-46l-40 -4v-104h85v56h40v48h40v50h39v49h37v-49h40v-50h41v-48h40v-56h80v104z" />
    <glyph glyph-name="underscore" unicode="_" horiz-adv-x="646" 
d="M590 28l16 -79v-185h-529l-19 90h-3v190h535v-16zM544 -2h-442v-98h442v98z" />
    <glyph glyph-name="grave" unicode="`" horiz-adv-x="317" 
d="M263 602l15 -79v-142h-165l-11 54h-29l-18 89h-3v143h171v-18l5 -31h35v-16zM216 572h-39v48h-79v-50h40v-53h78v55z" />
    <glyph glyph-name="a" unicode="a" horiz-adv-x="592" 
d="M536 433l16 -79v-490h-449l-11 50h-29l-18 90h-3v240h39v50h5l-2 9h-3v146h40v50h375v-16l7 -34h33v-16zM167 100v98h243v-98h-243zM490 403h-40v50h-283v-50h-39v-54h283v-51h-244v-50h-39v-50h-40v-148h40v-50h362v403z" />
    <glyph glyph-name="b" unicode="b" horiz-adv-x="564" 
d="M550 377l16 -78v-335h-40v-50h-40v-50h-409l-19 90h-3v795h172v-17l15 -78v-155h229v-16l6 -34h33v-16l8 -39h32v-17zM385 150v-50h-204v198h41v50h163v-50h39v-148h-39zM504 348h-40v55h-40v50h-202v-50h-42v300h-78v-703h322v50h40v50h40v248z" />
    <glyph glyph-name="c" unicode="c" 
d="M540 374l16 -78v-132h-13l13 -65v-137h-40v-48h-38v-50h-334l-10 50h-28l-10 51l-30 2l-19 89h-3v335l41 2v56h38v50h339v-16l7 -34h31v-17l8 -40l32 -1v-17zM494 348l-40 2v53h-38v50h-247v-50h-38v-53l-40 -2v-248l40 -3v-47h38v-50h247v50h38v48h40v50h-81v-47h-203
v47h-37v152h37v47h202v-47h82v48z" />
    <glyph glyph-name="d" unicode="d" horiz-adv-x="565" 
d="M508 732l16 -78v-790h-409l-11 50h-29l-10 50h-30l-17 90h-4v340h40v55h40v50h243v250h171v-17zM180 100v50h-40v148h40v50h123v-50h81v-198h-204zM462 703h-78v-300h-41v50h-202v-50h-41v-55h-40v-248h40v-50h40v-50h322v703z" />
    <glyph glyph-name="e" unicode="e" 
d="M539 377l16 -78v-185h-40v-50h-3l3 -13v-137h-40v-50h-332l-10 50h-28l-10 51l-29 2l-19 88l-3 1v338h40v55h38v50h337v-16l7 -34h33v-16l8 -39h32v-17zM210 300v48h203v-48h-203zM493 348h-40v55h-40v50h-245v-50h-38v-55h-39v-248l39 -3v-47h38v-50h245v50h40v50h-244
v48h-37v52h281v50h40v98z" />
    <glyph glyph-name="f" unicode="f" horiz-adv-x="452" 
d="M434 732l15 -78v-185h-120v-20h65v-16l16 -79v-190h-120v-300h-171l-18 90h-3v210h-58l-18 89h-4v196h80v200h41v50h40v50h255v-17zM387 703h-161v-50h-41v-50h-41v-200h-79v-103h79v-300h84v300h120v103h-120v152h39v50h120v98z" />
    <glyph glyph-name="g" unicode="g" horiz-adv-x="586" 
d="M534 483l16 -79v-540h-40v-50h-38v-50h-371l-19 90h-2v190h14l-3 20h-30l-18 89h-3v241h40v55h39v50h415v-16zM368 250v-50h-158v50h-45v48h45v50h199v-98h-41zM488 453h-323v-50h-39v-55h-40v-148h40v-50h39v-50h206v50h37v-102h-41v-50h-241v-98h284v50h38v50h40v453z
" />
    <glyph glyph-name="h" unicode="h" horiz-adv-x="529" 
d="M511 374l16 -78v-432h-168l-19 90h-3v210h-16l-10 48h-22v-48h-42v-300h-170l-19 90h-3v795h176v-17l16 -78v-155h187v-16l6 -34h31v-17l7 -40l33 -1v-17zM465 348l-41 2v53h-37v50h-163v-50h-39v300h-83v-703h83v300h42v48h119v-48h38v-300h81v348z" />
    <glyph glyph-name="i" unicode="i" horiz-adv-x="389" 
d="M360 128l15 -79v-185h-325l-18 90h-3v190h80v70h-18l-19 89h-3v196h40v150h171v-17l16 -78v-410h64v-16zM234 603h-79v-98h79v98zM313 98h-79v355h-118v-104h39v-251h-80v-98h238v98z" />
    <glyph glyph-name="j" unicode="j" horiz-adv-x="392" 
d="M337 632l16 -78v-740h-41v-50h-245l-10 50h-29l-18 90h-4v190h160v120h-19l-18 89h-3v196h40v150h171v-17zM291 603h-78v-98h78v98zM291 453h-119v-104h41v-351h-82v50h-78v-98h39v-50h159v50h40v503z" />
    <glyph glyph-name="k" unicode="k" horiz-adv-x="477" 
d="M466 129l16 -78v-187h-169l-10 50h-28l-11 51l-22 2v-103h-165l-19 90h-3v795h172v-17l15 -78v-205h11v50h173v-16l16 -79v-188l-39 -2v-21l23 -2v-16l6 -29h34v-17zM420 100h-40v48l-39 3v47l-38 3v97h38v49l39 2v104h-80v-50h-38v-54h-40v-49h-42v403h-78v-703h78v198
h42v-50h40v-48l38 -3v-47h38v-50h82v100z" />
    <glyph glyph-name="l" unicode="l" horiz-adv-x="393" 
d="M367 128l16 -79v-185h-326l-17 90h-4v190h80v325h-19l-18 89h-3v191h211v-17l15 -78v-510h65v-16zM321 98h-81v605h-118v-98h40v-507h-80v-98h239v98z" />
    <glyph glyph-name="m" unicode="m" horiz-adv-x="602" 
d="M551 377l16 -78v-435h-490l-19 90h-3v545h418v-16l7 -34h31v-16l8 -39h32v-17zM505 348h-40v55h-38v50h-88v-50h-76v50h-84v-50h-38v50h-39v-453h81v300h77v-300h83v300h80v-300h82v348z" />
    <glyph glyph-name="n" unicode="n" horiz-adv-x="561" 
d="M510 374l16 -78v-432h-167l-19 90h-3v210h-16l-10 48h-69v-348h-165l-19 90h-3v545h378v-16l6 -34h32v-17l7 -40l32 -1v-17zM464 348l-40 2v53h-38v50h-284v-453h78v348h166v-48h38v-300h80v348z" />
    <glyph glyph-name="o" unicode="o" horiz-adv-x="585" 
d="M540 377l16 -78v-335h-41v-50h-40v-50h-329l-10 50h-31l-10 50h-29l-19 90h-3v340h40v55h41v50h334v-16l7 -34h33v-16l8 -39h33v-17zM373 150v-50h-162v50h-40v148h40v50h162v-50h40v-148h-40zM494 348h-41v55h-40v50h-242v-50h-41v-55h-39v-248h39v-50h41v-50h242v50h40
v50h41v248z" />
    <glyph glyph-name="p" unicode="p" horiz-adv-x="569" 
d="M551 377l16 -78v-285h-41v-50h-40v-50h-244v-150h-165l-19 90h-3v645h416v-16l6 -34h33v-16l8 -39h33v-17zM385 200v-50h-163v50h-40v148h203v-50h39v-98h-39zM505 348h-41v55h-40v50h-322v-553h78v200h42v-50h202v50h40v50h41v198z" />
    <glyph glyph-name="q" unicode="q" horiz-adv-x="569" 
d="M512 483l16 -79v-640h-166l-18 90h-3v60h-223l-10 50h-30l-11 50h-29l-18 90h-3v290h39v55h41v50h415v-16zM346 200v-50h-163v50h-40v98h40v50h203v-148h-40zM466 453h-323v-50h-40v-55h-40v-198h40v-50h40v-50h203v50h41v-200h79v553z" />
    <glyph glyph-name="r" unicode="r" horiz-adv-x="517" 
d="M510 433l16 -79v-190h-165l-11 50h-62v-50h-42v-300h-169l-19 90h-3v545h416v-16l6 -34h33v-16zM464 403h-40v50h-200v-50h-39v50h-83v-453h82v300h43v49h159v-49h78v103z" />
    <glyph glyph-name="s" unicode="s" horiz-adv-x="512" 
d="M50 4h-3v140h15l-12 61l-3 1v243h40v50h335v-16l6 -34h34v-16l16 -79v-140h-4l4 -18v-282h-41v-50h-329l-10 50h-30zM416 248l-41 3v47h-203v51h244v54h-41v50h-242v-50h-40v-153l40 -3v-47h204v-102h-244v-48h40v-50h242v50h41v198z" />
    <glyph glyph-name="t" unicode="t" horiz-adv-x="455" 
d="M435 128l15 -79v-185h-285l-11 50h-29l-19 90h-2v210h-63l-18 89h-4v196h85v200h171v-17l15 -78v-105h105v-16l15 -79v-190h-120v-70h145v-16zM388 98h-160v251h121v104h-121v200h-78v-200h-84v-104h84v-299h40v-50h198v98z" />
    <glyph glyph-name="u" unicode="u" horiz-adv-x="602" 
d="M545 483l16 -79v-540h-408l-10 50h-27l-11 48h-34l-18 90h-3v447h177v-16l16 -79v-210h22v-17l6 -31h61v48h42v305h171v-16zM499 453h-78v-305h-43v-48h-159v48h-38v305h-85v-355h45v-48h37v-50h203v50h40v-50h78v453z" />
    <glyph glyph-name="v" unicode="v" horiz-adv-x="546" 
d="M519 483l15 -79v-186l-40 -4v-96l-37 -4v-97l-41 -3v-100h-40v-50h-170l-10 50h-30l-18 90h-3v11l-18 2l-19 88l-3 1v10l-16 2l-19 89l-3 1v7l-18 3l-18 89l-3 1v191h173v-16l15 -87h25v-17l16 -83h48v100h40v103h174v-16zM472 453h-81v-104h-40v-99h-39v-99h-77v99h-40
v99h-41v104h-80v-104l40 -4v-95l38 -5v-95l39 -3v-97h40v-50h83v50h40v97l41 3v95l37 5v95l40 4v104z" />
    <glyph glyph-name="w" unicode="w" horiz-adv-x="592" 
d="M544 483l15 -79v-386l-44 -5v-99h-38v-50h-130l-10 50h-60v-50h-130l-10 50h-27l-18 90h-3v12l-20 2l-18 89l-3 1v391h496v-16zM497 453h-85v-303h-37v48h-39v255h-84v-255h-39v-48h-37v303h-82v-303l41 -5v-95h37v-50h43v50h40v50h77v-50h40v-50h43v50h38v95l44 5v303z
" />
    <glyph glyph-name="x" unicode="x" horiz-adv-x="556" 
d="M510 124l16 -79v-181h-172l-10 50h-30l-10 48h-21v-48h-39v-50h-167l-19 90h-3v187l40 3v52h15l-4 18l-29 3l-19 89l-3 1v192h174v-16l7 -34h32v-17l7 -36h19v53h39v50h177v-16l16 -79v-187l-44 -4v-51h-13l2 -19l39 -2v-17zM464 98l-44 4v46l-37 3v47h-40v52h39v48h38
v47l44 4v104h-85v-50h-39v-54h-39v-49h-40v49h-39v54h-39v50h-81v-104l39 -3v-46l38 -3v-47h39v-52h-39v-48h-38v-48l-39 -4v-98h80v50h39v48h39v49h41v-49h38v-48h40v-50h85v98z" />
    <glyph glyph-name="y" unicode="y" horiz-adv-x="471" 
d="M456 483l15 -79v-186l-40 -4v-98l-42 -2v-100h-40v-100h-42v-100h-39v-50h-166l-19 90h-3v140h38v100h5l-2 10h-3v11l-16 1l-19 89l-3 1v9l-18 3l-18 89l-3 1v191h173v-16l16 -79v-8h47v103h179v-16zM410 453h-86v-104h-40v-98h-78v98h-38v104h-81v-104l40 -4v-95l38 -3
v-97h38v-102h-38v-100h-38v-48h79v50h39v100h43v100h39v97l42 3v95l41 4v104z" />
    <glyph glyph-name="z" unicode="z" horiz-adv-x="565" 
d="M510 128l16 -79v-185h-449l-19 90h-3v190h40v50h40v20h-58l-19 89h-3v196h455v-16l16 -79v-135h-40v-55h-39v-50h-45v-20h108v-16zM464 98h-241v52h40v50h39v50h38v50h45v49h39v56h40v48h-362v-104h198v-51h-41v-50h-40v-50h-38v-50h-40v-50h-39v-98h362v98z" />
    <glyph glyph-name="braceleft" unicode="{" horiz-adv-x="479" 
d="M432 80l15 -79v-187h-247l-10 50h-35l-10 51l-28 2l-18 89h-3v108h-18l-11 51l-29 1l-18 89l-3 1v138h39v55h40v200h38v50h44v50h254v-17l15 -78v-185h-120v-50h-38v-275h23v-17l5 -31h115v-16zM386 50h-121v48h-38v202h-43v49h43v206h38v50h121v98h-161v-50h-45v-50h-38
v-200h-39v-55h-40v-48l40 -3v-47h39v-200l38 -3v-47h45v-50h161v100z" />
    <glyph glyph-name="bar" unicode="|" horiz-adv-x="287" 
d="M227 732l15 -78v-790h-165l-19 90h-3v795h172v-17zM180 703h-78v-703h78v703z" />
    <glyph glyph-name="braceright" unicode="}" horiz-adv-x="478" 
d="M460 374l16 -78v-132h-40v-50h-39v-200h-39v-50h-39v-50h-252l-19 90h-3v190h125v50h38v275h-17l-10 48h-114l-19 90h-3v192h258v-17l7 -33h32v-17l7 -35l32 -1v-16l16 -79v-102h24v-17l7 -40l32 -1v-17zM414 348l-40 2v53h-39v200l-39 3v47h-39v50h-165v-100h124v-48h38
v-206l39 -2v-49h-39v-200h-38v-50h-124v-98h165v50h39v50h39v200h39v50h40v48z" />
    <glyph glyph-name="asciitilde" unicode="~" horiz-adv-x="577" 
d="M536 632l16 -78v-132l-40 -3v-51h-38v-49h-210l-10 48h-19v-48h-173l-18 90h-3v136l44 4v51h38v49h215v-18l6 -30h18v48h174v-17zM490 603h-81v-48h-37v-48h-42v48h-38v48h-123v-49h-38v-47l-44 -4v-48h86v48h37v48h41v-48h38v-48h123v49h38v47l40 4v48z" />
    <glyph glyph-name="exclamdown" unicode="&#xa1;" horiz-adv-x="307" 
d="M67 749h171v-17l15 -78v-185h-2l2 -15v-55h24v-16l16 -79v-340h-40v-100h-165l-19 90h-2v10h-19l-17 90h-4v345h40v150h4l-2 9h-2v191zM113 605h78v98h-78v-98zM73 100h40v-100h78v100h40v253h-40v150h-78v-150h-40v-253z" />
    <glyph glyph-name="cent" unicode="&#xa2;" 
d="M398 595h64v-16l7 -34h31v-17l8 -40l32 -1v-16l16 -79v-132h-13l13 -65v-137h-40v-48h-38v-50h-80v-96h-166l-18 90h-3v6h-67l-10 50h-28l-10 50l-30 3l-19 90h-3v334l41 2v56h38v50h88v154h171v-17l16 -78v-59zM210 443h47v-246h-47v47h-37v152h37v47zM336 96h80v50h38
v48h40v50h-81v-47h-77v246h76v-47h82v48l-40 3v52h-38v50h-80v154h-79v-154h-88v-50h-38v-52l-40 -3v-248l40 -3v-47h38v-50h88v-96h79v96z" />
    <glyph glyph-name="yen" unicode="&#xa5;" horiz-adv-x="541" 
d="M470 269l15 -79v-264h-113v-62h-170l-13 62h-97l-18 90h-3v270h47l-14 75h-3v10l-17 2l-18 89l-3 1v8l-19 2l-17 89l-4 1v186h173v-17l16 -81h24v-17l15 -83h49v100h40v98h178v-17l15 -78v-182l-44 -4v-95l-38 -4v-83h19v-17zM423 239h-113v61h39v102l40 3v95l38 5v95
l44 5v98h-85v-98h-39v-100h-40v-99h-77v99h-40v100h-40v98h-81v-98l40 -5v-95l38 -5v-95l40 -3v-102h40v-61h-110v-61h110v-59h-110v-57h110v-62h83v62h113v57h-113v59h113v61z" />
    <glyph glyph-name="dieresis" unicode="&#xa8;" horiz-adv-x="459" 
d="M402 650l16 -79v-190h-166l-10 51v-51h-165l-19 90h-3v196h172v-17l4 -23v40h171v-17zM356 620h-79v-103h79v103zM180 620h-78v-103h78v103z" />
    <glyph glyph-name="copyright" unicode="&#xa9;" horiz-adv-x="692" 
d="M673 533l16 -79v-390h-40v-100h-44v-50h-40v-50h-385l-10 50h-30l-11 50h-29l-19 90h-2v10h-19l-17 89h-4v396h40v100h39v50h41v50h390v-17l7 -33h33v-17l6 -33h38v-17l16 -83h24v-16zM483 422l-26 2v35h-25v33h-162v-33h-25v-35l-27 -2v-161l27 -2v-32h25v-32h162v32h25
v32h26v33h-53v-31h-133v31h-24v99h24v31h133v-31h53v31zM503 200v-50h-40v-50h-218v50h-40v50h-40v303h40v50h40v50h218v-50h40v-50h40v-303h-40zM627 503h-40v100h-44v50h-40v50h-298v-50h-40v-50h-40v-100h-40v-303h40v-100h40v-50h40v-50h298v50h40v50h44v100h40v303z
" />
    <glyph glyph-name="guillemotleft" unicode="&#xab;" horiz-adv-x="602" 
d="M563 279l16 -78v-189h-170l-11 53l-27 2l-10 45h-13v-100h-170l-12 53l-26 2l-10 45h-30l-10 50h-30l-17 89h-4v198h40v50h39v50h38v50h176v-17l16 -83l1 50h38v50h176v-17l16 -78v-185h-41v-23h25v-17zM517 250h-40v48l-40 2v105h39v50h41v98h-83v-50h-38v-50h-40v-50
h-40v-105h40v-50h40v-48l38 -3v-49h83v102zM286 250h-40v48l-40 2v105h39v50h41v98h-84v-50h-37v-50h-40v-50h-40v-105h40v-50h40v-48l37 -3v-49h84v102z" />
    <glyph glyph-name="registered" unicode="&#xae;" horiz-adv-x="718" 
d="M682 533l16 -79v-390h-40v-100h-44v-50h-40v-50h-384l-11 50h-30l-10 50h-30l-18 90h-3v10h-19l-18 89h-3v396h40v100h40v50h40v50h390v-17l7 -33h33v-17l7 -33h38v-17l15 -83h24v-16zM404 379v-28h-101v126h101v-25h20v-73h-20zM464 227h-20v24l-19 1v23l-20 2v24h19v25
h20v25h20v126h-20v25h-20v25h-161v-349h39v123h41v-26h19v-24h23v-24l19 -1v-24h19v-24h41v49zM512 200v-50h-40v-50h-218v50h-40v50h-40v303h40v50h40v50h218v-50h40v-50h40v-303h-40zM636 503h-40v100h-44v50h-40v50h-298v-50h-40v-50h-40v-100h-40v-303h40v-100h40v-50
h40v-50h298v50h40v50h44v100h40v303z" />
    <glyph glyph-name="acute" unicode="&#xb4;" horiz-adv-x="317" 
d="M263 602l15 -79v-142h-165l-11 54h-29l-18 89h-3v143h171v-18l5 -31h35v-16zM216 572h-39v48h-79v-50h40v-53h78v55z" />
    <glyph glyph-name="cedilla" unicode="&#xb8;" horiz-adv-x="242" 
d="M37 21h27v48h141v-16l16 -79v-137h-24v-53h-139l-17 89h-4v148zM83 -80h52v53h24v50h-49v-48h-27v-55z" />
    <glyph glyph-name="guillemotright" unicode="&#xbb;" horiz-adv-x="602" 
d="M38 296h40v23h-19l-17 90h-4v190h176v-17l6 -33h31v-16l7 -34h11v100h176v-17l6 -33h32v-16l6 -34h33v-16l7 -34h33v-16l16 -79v-192h-40v-50h-40v-45l-38 -3v-52h-170l-18 90h-3v10h-2v-45l-38 -3v-52h-170l-17 90h-4v194zM315 148h83v49l38 3v48h40v50h40v105h-40v50
h-40v50h-38v50h-83v-98h41v-50h39v-105l-40 -2v-48h-40v-102zM84 148h83v49l38 3v48h40v50h40v105h-40v50h-40v50h-38v50h-83v-98h41v-50h39v-105l-40 -2v-48h-40v-102z" />
    <glyph glyph-name="questiondown" unicode="&#xbf;" horiz-adv-x="532" 
d="M17 291l39 2v51h39v55h38v50h45v150h2v150h171v-17l16 -78v-356l144 -6v-17l16 -78v-230l-40 -3v-50h-38v-50h-333l-10 50h-28l-11 51l-29 2l-18 88l-3 1v235zM227 605h78v98h-78v-98zM63 100l40 -3v-47h38v-50h246v50h38v47l40 3v148l-80 3v-103h-38v-47h-164v47h-39v52
h39v47h44v53h38v55h40v198h-80v-150h-46v-50h-38v-55h-38v-47l-40 -3v-148z" />
    <glyph glyph-name="Agrave" unicode="&#xc0;" horiz-adv-x="543" 
d="M516 175l16 -79v-232h-168l-18 90h-3v57h-129v-147h-167l-17 90h-4v237l40 2v151h38v155h41v150h41v40l-18 85h-3v142h172v-17l5 -31h34v-17l16 -78v-124h5v-17l15 -78v-55h26v-16l16 -79v-60h22v-17l16 -78v-57l24 -1v-16zM330 822h-40v48h-78v-50h39v-54h79v56z
M191 250v48h41v155h79v-155h39v-48h-159zM470 148l-40 3v147h-38v155h-42v150h-39v100h-79v-100h-41v-150h-41v-155h-38v-147l-40 -3v-148h81v147h236v-147h81v148z" />
    <glyph glyph-name="Aacute" unicode="&#xc1;" horiz-adv-x="543" 
d="M516 175l16 -79v-232h-168l-18 90h-3v57h-129v-147h-167l-17 90h-4v237l40 2v151h38v155h41v150h41v40l-18 85h-3v142h172v-17l5 -31h34v-17l16 -78v-124h5v-17l15 -78v-55h26v-16l16 -79v-60h22v-17l16 -78v-57l24 -1v-16zM330 822h-40v48h-78v-50h39v-54h79v56z
M191 250v48h41v155h79v-155h39v-48h-159zM470 148l-40 3v147h-38v155h-42v150h-39v100h-79v-100h-41v-150h-41v-155h-38v-147l-40 -3v-148h81v147h236v-147h81v148z" />
    <glyph glyph-name="Acircumflex" unicode="&#xc2;" horiz-adv-x="543" 
d="M154 868h27v48h179v-17l5 -31h23v-17l16 -78v-142h-7l15 -77v-55h26v-16l16 -79v-60h22v-17l16 -78v-57l24 -1v-16l16 -79v-232h-168l-18 90h-3v57h-129v-147h-167l-17 90h-4v237l40 2v151h38v155h41v150h26l-14 71h-3v148zM201 766h51v54h41v-54h49v56h-29v48h-86v-48
h-36zM191 250v48h41v155h79v-155h39v-48h-159zM470 148l-40 3v147h-38v155h-42v150h-39v100h-79v-100h-41v-150h-41v-155h-38v-147l-40 -3v-148h81v147h236v-147h81v148z" />
    <glyph glyph-name="Atilde" unicode="&#xc3;" horiz-adv-x="543" 
d="M125 868h26l6 48h260v-16l16 -79v-137h-28v-53h-8l15 -77v-55h26v-16l16 -79v-60h22v-17l16 -78v-57l24 -1v-16l16 -79v-232h-168l-18 90h-3v57h-129v-147h-167l-17 90h-4v237l40 2v151h38v155h41v136l-17 85h-3v148zM171 766h52v54h40v-54h80v54h28v50h-53v-48h-34v48
h-86l-7 -48h-20v-56zM191 250v48h41v155h79v-155h39v-48h-159zM470 148l-40 3v147h-38v155h-42v150h-39v100h-79v-100h-41v-150h-41v-155h-38v-147l-40 -3v-148h81v147h236v-147h81v148z" />
    <glyph glyph-name="Adieresis" unicode="&#xc4;" horiz-adv-x="543" 
d="M445 916v-16l15 -79v-190h-63l15 -77v-55h26v-16l16 -79v-60h22v-17l16 -78v-57l24 -1v-16l16 -79v-232h-168l-18 90h-3v57h-129v-147h-167l-17 90h-4v237l40 2v151h38v155h41v132h-26l-18 89h-3v196h347zM398 870h-78v-104h78v104zM223 870h-79v-104h79v104zM191 250v48
h41v155h79v-155h39v-48h-159zM470 148l-40 3v147h-38v155h-42v150h-39v100h-79v-100h-41v-150h-41v-155h-38v-147l-40 -3v-148h81v147h236v-147h81v148z" />
    <glyph glyph-name="Aring" unicode="&#xc5;" horiz-adv-x="543" 
d="M154 916h27v48h179v-17l5 -31h23v-16l16 -79v-142h-27v-30h20v-17l15 -78v-55h26v-16l16 -79v-60h22v-17l16 -78v-57l24 -1v-16l16 -79v-232h-168l-18 90h-3v57h-129v-147h-167l-17 90h-4v237l40 2v151h38v155h41v150h41v30h-10l-19 89h-3v148zM252 816v52h38v-52h-38z
M201 814h28v-48h86v48h27v56h-29v48h-86v-48h-36zM191 250v48h41v155h79v-155h39v-48h-159zM470 148l-40 3v147h-38v155h-42v150h-39v100h-79v-100h-41v-150h-41v-155h-38v-147l-40 -3v-148h81v147h236v-147h81v148z" />
    <glyph glyph-name="AE" unicode="&#xc6;" horiz-adv-x="645" 
d="M609 128l16 -79v-185h-339l-19 90h-3v57h-50v-147h-167l-17 90h-4v237l40 2v151h38v155h41v150h41v100h423v-17l16 -78v-185h-174v-20h79v-16l15 -79v-190h-94v-20h158v-16zM311 453v-203h-120v48h41v155h79zM563 98h-174v202h95v103h-95v202h174v98h-331v-100h-41v-150
h-41v-155h-38v-147l-40 -3v-148h81v147h158v-147h252v98z" />
    <glyph glyph-name="Ccedilla" unicode="&#xc7;" 
d="M229 246h24v-18l7 -34h31v-16l6 -31h23v47h37v52h178v-17l16 -78v-184l-41 -3v-50h-41v-50h-82v-27h-24v-53h-138l-17 80h-30l-10 50h-28l-11 51l-28 2l-19 88l-2 1v10l-19 2l-18 89l-3 1v391h40v97l38 2v51h39v50h296v-17l6 -33h36v-17l6 -35l34 -1v-16l16 -79v-182
h-173l-10 50h-27l-9 47h-25v-47h-38v-50h-40v-123zM250 -80h51v53h24v27h82v50h41v47l41 3v100h-86v-52h-37v-47h-121v47h-38v52h-40v305h40v50h38v47h121v-47h37v-50h86v98l-41 3v47h-41v50h-204v-50h-38v-47l-39 -3v-100h-40v-303l40 -5v-95l39 -3v-47h38v-50h73v-25h-26
v-55z" />
    <glyph glyph-name="Egrave" unicode="&#xc8;" horiz-adv-x="591" 
d="M550 128l16 -79v-185h-489l-19 90h-3v795h142l-5 25h-2v142h171v-17l5 -31h34v-17l16 -78v-24h134v-17l16 -78v-185h-324v-20h229v-16l15 -79v-190h-244v-20h308v-16zM354 822h-40v48h-78v-50h39v-54h79v56zM504 98h-324v202h244v103h-244v202h324v98h-402v-703h402v98z
" />
    <glyph glyph-name="Eacute" unicode="&#xc9;" horiz-adv-x="591" 
d="M550 128l16 -79v-185h-489l-19 90h-3v795h142l-5 25h-2v142h171v-17l5 -31h34v-17l16 -78v-24h134v-17l16 -78v-185h-324v-20h229v-16l15 -79v-190h-244v-20h308v-16zM354 822h-40v48h-78v-50h39v-54h79v56zM504 98h-324v202h244v103h-244v202h324v98h-402v-703h402v98z
" />
    <glyph glyph-name="Ecircumflex" unicode="&#xca;" horiz-adv-x="591" 
d="M550 128l16 -79v-185h-489l-19 90h-3v795h123v119h27v48h179v-17l5 -31h23v-17l16 -78v-24h122v-17l16 -78v-185h-324v-20h229v-16l15 -79v-190h-244v-20h308v-16zM225 766h51v54h41v-54h49v56h-29v48h-86v-48h-26v-56zM504 98h-324v202h244v103h-244v202h324v98h-402
v-703h402v98z" />
    <glyph glyph-name="Edieresis" unicode="&#xcb;" horiz-adv-x="591" 
d="M550 128l16 -79v-185h-489l-19 90h-3v795h67v167h347v-16l15 -79v-72h66v-17l16 -78v-185h-324v-20h229v-16l15 -79v-190h-244v-20h308v-16zM247 870h-79v-104h79v104zM422 870h-78v-104h78v104zM504 98h-324v202h244v103h-244v202h324v98h-402v-703h402v98z" />
    <glyph glyph-name="Igrave" unicode="&#xcc;" horiz-adv-x="435" 
d="M384 128l15 -79v-185h-329l-18 90h-3v190h84v325h-63l-18 89h-3v191h70l-4 25h-3v142h171v-17l5 -31h35v-17l15 -78v-24h46v-17l15 -78v-185h-79v-325h64v-16zM276 822h-39v48h-79v-50h40v-54h78v56zM337 98h-79v507h79v98h-242v-98h84v-507h-84v-98h242v98z" />
    <glyph glyph-name="Iacute" unicode="&#xcd;" horiz-adv-x="435" 
d="M384 128l15 -79v-185h-329l-18 90h-3v190h84v325h-63l-18 89h-3v191h70l-4 25h-3v142h171v-17l5 -31h35v-17l15 -78v-24h46v-17l15 -78v-185h-79v-325h64v-16zM276 822h-39v48h-79v-50h40v-54h78v56zM337 98h-79v507h79v98h-242v-98h84v-507h-84v-98h242v98z" />
    <glyph glyph-name="Icircumflex" unicode="&#xce;" horiz-adv-x="435" 
d="M384 128l15 -79v-185h-329l-18 90h-3v190h84v325h-63l-18 89h-3v191h51v119h27v48h178v-17l6 -31h23v-17l15 -78v-24h35v-17l15 -78v-185h-79v-325h64v-16zM146 766h52v54h41v-54h49v56h-29v48h-86v-48h-27v-56zM337 98h-79v507h79v98h-242v-98h84v-507h-84v-98h242v98z
" />
    <glyph glyph-name="Idieresis" unicode="&#xcf;" horiz-adv-x="435" 
d="M384 128l15 -79v-185h-329l-18 90h-3v190h84v325h-63l-18 89h-3v155l-2 7h-3v196h347v-16l16 -79v-190h-8v-162h-79v-325h64v-16zM169 870h-78v-104h78v104zM345 870h-79v-104h79v104zM337 98h-79v507h79v98h-242v-98h84v-507h-84v-98h242v98z" />
    <glyph glyph-name="Eth" unicode="&#xd0;" horiz-adv-x="591" 
d="M551 533l16 -79v-390h-41v-100h-40v-50h-44v-50h-365l-19 90h-3v218h-12l-18 90h-4v152h34v335h371v-17l7 -33h38v-17l6 -33h33v-17l16 -83h25v-16zM309 368h-127v235h158v-50h40v-50h44v-303h-44v-50h-40v-50h-158v208h127v60zM505 503h-41v100h-40v50h-44v50h-278v-335
h-35v-60h35v-308h278v50h44v50h40v100h41v303z" />
    <glyph glyph-name="Ntilde" unicode="&#xd1;" horiz-adv-x="607" 
d="M551 732l16 -78v-790h-170l-11 50h-32l-18 90h-3v10h-19l-10 51l-29 2l-19 88l-3 1v9h-11v-301h-165l-19 90h-3v795h102v119h27v48h265v-16l16 -79v-72h86v-17zM203 766h52v54h41v-54h79v54h28v50h-53v-48h-34v48h-86v-48h-27v-56zM505 703h-83v-503h-39v98l-40 2v103
l-40 3v97l-40 3v47h-40v100h-43v50h-78v-703h78v503h40v-98l40 -3v-102l40 -3v-97l39 -3v-47h40v-100h43v-50h83v703z" />
    <glyph glyph-name="Ograve" unicode="&#xd2;" horiz-adv-x="572" 
d="M533 533l16 -79v-390h-40v-100h-44v-50h-40v-50h-245l-10 50h-30l-11 50h-29l-19 90h-2v10h-19l-17 89h-4v396h40v100h39v50h41v50h29l-5 25h-3v142h171v-17l6 -31h34v-17l16 -78v-24h3v-17l6 -33h33v-17l7 -33h38v-17l15 -83h24v-16zM345 822h-40v48h-78v-50h39v-54h79
v56zM363 200v-50h-39v-50h-79v50h-40v50h-40v303h40v50h40v50h79v-50h39v-50h40v-303h-40zM487 503h-40v100h-44v50h-40v50h-158v-50h-40v-50h-40v-100h-40v-303h40v-100h40v-50h40v-50h158v50h40v50h44v100h40v303z" />
    <glyph glyph-name="Oacute" unicode="&#xd3;" horiz-adv-x="572" 
d="M533 533l16 -79v-390h-40v-100h-44v-50h-40v-50h-245l-10 50h-30l-11 50h-29l-19 90h-2v10h-19l-17 89h-4v396h40v100h39v50h41v50h29l-5 25h-3v142h171v-17l6 -31h34v-17l16 -78v-24h3v-17l6 -33h33v-17l7 -33h38v-17l15 -83h24v-16zM345 822h-40v48h-78v-50h39v-54h79
v56zM363 200v-50h-39v-50h-79v50h-40v50h-40v303h40v50h40v50h79v-50h39v-50h40v-303h-40zM487 503h-40v100h-44v50h-40v50h-158v-50h-40v-50h-40v-100h-40v-303h40v-100h40v-50h40v-50h158v50h40v50h44v100h40v303z" />
    <glyph glyph-name="Ocircumflex" unicode="&#xd4;" horiz-adv-x="572" 
d="M533 533l16 -79v-390h-40v-100h-44v-50h-40v-50h-245l-10 50h-30l-11 50h-29l-19 90h-2v10h-19l-17 89h-4v396h40v100h39v50h41v50h10v119h27v48h178v-17l6 -31h23v-17l16 -78v-74h30v-17l7 -33h38v-17l15 -83h24v-16zM215 766h52v54h41v-54h49v56h-29v48h-86v-48h-27
v-56zM363 200v-50h-39v-50h-79v50h-40v50h-40v303h40v50h40v50h79v-50h39v-50h40v-303h-40zM487 503h-40v100h-44v50h-40v50h-158v-50h-40v-50h-40v-100h-40v-303h40v-100h40v-50h40v-50h158v50h40v50h44v100h40v303z" />
    <glyph glyph-name="Otilde" unicode="&#xd5;" horiz-adv-x="572" 
d="M140 868h26v48h266v-16l15 -79v-122h2v-17l7 -33h38v-17l15 -83h24v-16l16 -79v-390h-40v-100h-44v-50h-40v-50h-245l-10 50h-30l-11 50h-29l-19 90h-2v10h-19l-17 89h-4v396h40v100h39v50h29l-5 21h-2v148zM186 766h52v54h40v-54h80v54h28v50h-53v-48h-34v48h-86v-48
h-27v-56zM363 200v-50h-39v-50h-79v50h-40v50h-40v303h40v50h40v50h79v-50h39v-50h40v-303h-40zM487 503h-40v100h-44v50h-40v50h-158v-50h-40v-50h-40v-100h-40v-303h40v-100h40v-50h40v-50h158v50h40v50h44v100h40v303z" />
    <glyph glyph-name="Odieresis" unicode="&#xd6;" horiz-adv-x="572" 
d="M459 916v-16l16 -79v-172h19v-17l15 -83h24v-16l16 -79v-390h-40v-100h-44v-50h-40v-50h-245l-10 50h-30l-11 50h-29l-19 90h-2v10h-19l-17 89h-4v396h40v100h39v50h2l-4 21h-3v196h346zM413 870h-78v-104h78v104zM238 870h-79v-104h79v104zM363 200v-50h-39v-50h-79v50
h-40v50h-40v303h40v50h40v50h79v-50h39v-50h40v-303h-40zM487 503h-40v100h-44v50h-40v50h-158v-50h-40v-50h-40v-100h-40v-303h40v-100h40v-50h40v-50h158v50h40v50h44v100h40v303z" />
    <glyph glyph-name="Oslash" unicode="&#xd8;" horiz-adv-x="572" 
d="M554 682l15 -78v-235h-20v-305h-40v-100h-44v-50h-40v-50h-245l-10 50h-130l-18 90h-4v190h21v355h40v100h39v50h41v50h251v-17l6 -33h138v-17zM508 653h-41v-50h-64v50h-40v50h-158v-50h-40v-50h-40v-100h-40v-303h40v-2h-21v-50h-39v-98h81v50h19v-50h40v-50h158v50h40
v50h44v100h40v303h-17l38 2v148zM363 503h-16v-50h-40v-50h-40v-55h-44v-50h-41v-50h-17v255h40v50h40v50h79v-50h39v-50zM363 200v-50h-39v-50h-79v50h-19v50h44v50h40v50h39v49h41v56h13v-205h-40z" />
    <glyph glyph-name="Ugrave" unicode="&#xd9;" horiz-adv-x="597" 
d="M545 732l16 -78v-636l-40 -4v-100h-37v-50h-334l-10 50h-28l-19 90h-2v12l-19 2l-18 89l-3 1v641h150l-5 25h-3v142h171v-17l6 -31h34v-17l16 -78v-24h125v-17zM358 822h-40v48h-79v-50h40v-54h79v56zM499 703h-80v-553h-38v-52h-161v52h-42v553h-81v-553l40 -5v-95h38
v-50h247v50h37v95l40 5v553z" />
    <glyph glyph-name="Uacute" unicode="&#xda;" horiz-adv-x="597" 
d="M545 732l16 -78v-636l-40 -4v-100h-37v-50h-334l-10 50h-28l-19 90h-2v12l-19 2l-18 89l-3 1v641h150l-5 25h-3v142h171v-17l6 -31h34v-17l16 -78v-24h125v-17zM358 822h-40v48h-79v-50h40v-54h79v56zM499 703h-80v-553h-38v-52h-161v52h-42v553h-81v-553l40 -5v-95h38
v-50h247v50h37v95l40 5v553z" />
    <glyph glyph-name="Ucircumflex" unicode="&#xdb;" horiz-adv-x="597" 
d="M545 732l16 -78v-636l-40 -4v-100h-37v-50h-334l-10 50h-28l-19 90h-2v12l-19 2l-18 89l-3 1v641h130v119h27v48h178v-17l6 -31h23v-17l16 -78v-24h114v-17zM227 766h52v54h41v-54h49v56h-29v48h-86v-48h-27v-56zM499 703h-80v-553h-38v-52h-161v52h-42v553h-81v-553
l40 -5v-95h38v-50h247v50h37v95l40 5v553z" />
    <glyph glyph-name="Udieresis" unicode="&#xdc;" horiz-adv-x="597" 
d="M545 732l16 -78v-636l-40 -4v-100h-37v-50h-334l-10 50h-28l-19 90h-2v12l-19 2l-18 89l-3 1v641h74v167h346v-16l16 -79v-72h58v-17zM250 870h-79v-104h79v104zM425 870h-78v-104h78v104zM499 703h-80v-553h-38v-52h-161v52h-42v553h-81v-553l40 -5v-95h38v-50h247v50
h37v95l40 5v553z" />
    <glyph glyph-name="Yacute" unicode="&#xdd;" horiz-adv-x="541" 
d="M518 732l15 -78v-182l-44 -4v-95l-38 -4v-97l-40 -3v-105h-39v-300h-170l-19 90h-3v210h-18l-19 89h-2v17l-19 2l-18 89h-3v10l-17 2l-18 89l-3 1v8l-19 2l-17 89l-4 1v186h149l-5 25h-2v142h171v-17l5 -31h34v-17l16 -78v-24h127v-17zM329 822h-40v48h-78v-50h40v-54h78
v56zM471 703h-85v-98h-39v-100h-40v-99h-77v99h-40v100h-40v98h-81v-98l40 -5v-95l38 -5v-95l40 -3v-102h40v-300h83v300h39v102l40 3v95l38 5v95l44 5v98z" />
    <glyph glyph-name="Thorn" unicode="&#xde;" horiz-adv-x="565" 
d="M551 492l16 -79v-340h-40v-50h-41v-50h-244v-109h-165l-19 90h-3v795h173v-17l16 -78v-46h227v-16l6 -34h34v-16l7 -34h33v-16zM380 264v-55h-198v253h198v-50h44v-148h-44zM505 462h-40v50h-41v50h-242v141h-80v-703h78v109h244v50h41v50h40v253z" />
    <glyph glyph-name="germandbls" unicode="&#xdf;" horiz-adv-x="559" 
d="M55 -46h-3v695h40v50h41v50h254v-17l7 -33h37v-18l5 -30h70v-17l15 -78v-318l9 -42v-282h-41v-50h-227l-11 50h-7v-50h-171zM318 555h66v-102h-97v-50h-40v-153l40 -3v-47h102v-102h-142v-48h40v-50h140v50h41v198l-41 3v47h-102v51h134v256h-74v48h-44v50h-162v-50h-40
v-50h-41v-603h84v555h39v50h97v-50z" />
    <glyph glyph-name="agrave" unicode="&#xe0;" horiz-adv-x="592" 
d="M536 433l16 -79v-490h-449l-11 50h-29l-18 90h-3v240h39v50h5l-2 9h-3v146h40v50h77l-5 25h-3v143h171v-18l6 -31h34v-16l16 -79v-24h79v-16l7 -34h33v-16zM355 572h-40v48h-78v-50h39v-53h79v55zM167 100v98h243v-98h-243zM490 403h-40v50h-283v-50h-39v-54h283v-51
h-244v-50h-39v-50h-40v-148h40v-50h362v403z" />
    <glyph glyph-name="aacute" unicode="&#xe1;" horiz-adv-x="592" 
d="M536 433l16 -79v-490h-449l-11 50h-29l-18 90h-3v240h39v50h5l-2 9h-3v146h40v50h77l-5 25h-3v143h171v-18l6 -31h34v-16l16 -79v-24h79v-16l7 -34h33v-16zM355 572h-40v48h-78v-50h39v-53h79v55zM167 100v98h243v-98h-243zM490 403h-40v50h-283v-50h-39v-54h283v-51
h-244v-50h-39v-50h-40v-148h40v-50h362v403z" />
    <glyph glyph-name="acircumflex" unicode="&#xe2;" horiz-adv-x="592" 
d="M536 433l16 -79v-490h-449l-11 50h-29l-18 90h-3v240h39v50h5l-2 9h-3v146h40v50h57v119h27v49h179v-18l5 -31h23v-16l16 -79v-24h68v-16l7 -34h33v-16zM225 517h51v53h41v-53h49v55h-29v48h-86v-48h-26v-55zM167 100v98h243v-98h-243zM490 403h-40v50h-283v-50h-39v-54
h283v-51h-244v-50h-39v-50h-40v-148h40v-50h362v403z" />
    <glyph glyph-name="atilde" unicode="&#xe3;" horiz-adv-x="592" 
d="M536 433l16 -79v-490h-449l-11 50h-29l-18 90h-3v240h39v50h5l-2 9h-3v146h40v50h29v119h27v49h265v-17l16 -79v-72h38v-16l7 -34h33v-16zM196 517h52v53h40v-53h80v53h28v50h-53v-48h-34v48h-86v-48h-27v-55zM167 100v98h243v-98h-243zM490 403h-40v50h-283v-50h-39v-54
h283v-51h-244v-50h-39v-50h-40v-148h40v-50h362v403z" />
    <glyph glyph-name="adieresis" unicode="&#xe4;" horiz-adv-x="592" 
d="M469 667v-17l15 -79v-72h12v-16l7 -34h33v-16l16 -79v-490h-449l-11 50h-29l-18 90h-3v240h39v50h5l-2 9h-3v146h40v218h348zM490 403h-40v50h-283v-50h-39v-54h283v-51h-244v-50h-39v-50h-40v-148h40v-50h362v403zM167 100v98h243v-98h-243zM247 620h-80v-103h80v103z
M422 620h-78v-103h78v103z" />
    <glyph glyph-name="aring" unicode="&#xe5;" horiz-adv-x="592" 
d="M178 667h27v48h179v-18l5 -30h23v-17l16 -79v-72h68v-16l7 -34h33v-16l16 -79v-490h-449l-11 50h-29l-18 90h-3v240h39v50h5l-2 9h-3v146h40v50h64l-4 20h-3v148zM276 567v51h38v-51h-38zM225 565h28v-48h86v48h27v55h-29v48h-86v-48h-26v-55zM167 100v98h243v-98h-243z
M490 403h-40v50h-283v-50h-39v-54h283v-51h-244v-50h-39v-50h-40v-148h40v-50h362v403z" />
    <glyph glyph-name="ae" unicode="&#xe6;" horiz-adv-x="706" 
d="M676 377l16 -78v-185h-40v-50h-3l3 -13v-137h-40v-50h-509l-11 50h-29l-18 90h-3v240h39v50h5l-2 9h-3v146h40v50h475v-16l7 -34h33v-16l7 -39h33v-17zM439 300v48h111v-48h-111zM167 100v98h151v-98h-151zM630 348h-40v55h-40v50h-152v-50h-40v50h-191v-50h-39v-54h191
v-51h-152v-50h-39v-50h-40v-148h40v-50h422v50h40v50h-152v48h-37v52h189v50h40v98z" />
    <glyph glyph-name="ccedilla" unicode="&#xe7;" 
d="M47 56h-3v335l41 2v56h38v50h339v-16l7 -34h31v-17l8 -40l32 -1v-17l16 -78v-132h-13l13 -65v-137h-40v-48h-38v-50h-91v-27h-24v-53h-138l-17 80h-64l-10 50h-28l-10 51l-30 2zM250 -80h51v53h24v27h91v50h38v48h40v50h-81v-47h-203v47h-37v152h37v47h202v-47h82v48
l-40 2v53h-38v50h-247v-50h-38v-53l-40 -2v-248l40 -3v-47h38v-50h107v-25h-26v-55z" />
    <glyph glyph-name="egrave" unicode="&#xe8;" 
d="M539 377l16 -78v-185h-40v-50h-3l3 -13v-137h-40v-50h-332l-10 50h-28l-10 51l-29 2l-19 88l-3 1v338h40v55h38v50h68l-5 25h-3v143h171v-18l6 -31h34v-16l16 -79v-24h50v-16l7 -34h33v-16l8 -39h32v-17zM347 572h-40v48h-79v-50h40v-53h79v55zM210 300v48h203v-48h-203z
M493 348h-40v55h-40v50h-245v-50h-38v-55h-39v-248l39 -3v-47h38v-50h245v50h40v50h-244v48h-37v52h281v50h40v98z" />
    <glyph glyph-name="eacute" unicode="&#xe9;" 
d="M539 377l16 -78v-185h-40v-50h-3l3 -13v-137h-40v-50h-332l-10 50h-28l-10 51l-29 2l-19 88l-3 1v338h40v55h38v50h68l-5 25h-3v143h171v-18l6 -31h34v-16l16 -79v-24h50v-16l7 -34h33v-16l8 -39h32v-17zM347 572h-40v48h-79v-50h40v-53h79v55zM210 300v48h203v-48h-203z
M493 348h-40v55h-40v50h-245v-50h-38v-55h-39v-248l39 -3v-47h38v-50h245v50h40v50h-244v48h-37v52h281v50h40v98z" />
    <glyph glyph-name="ecircumflex" unicode="&#xea;" 
d="M539 377l16 -78v-185h-40v-50h-3l3 -13v-137h-40v-50h-332l-10 50h-28l-10 51l-29 2l-19 88l-3 1v338h40v55h38v50h49v119h27v49h178v-18l6 -31h23v-16l16 -79v-24h38v-16l7 -34h33v-16l8 -39h32v-17zM210 300v48h203v-48h-203zM217 517h52v53h41v-53h49v55h-29v48h-86
v-48h-27v-55zM493 348h-40v55h-40v50h-245v-50h-38v-55h-39v-248l39 -3v-47h38v-50h245v50h40v50h-244v48h-37v52h281v50h40v98z" />
    <glyph glyph-name="edieresis" unicode="&#xeb;" 
d="M461 667v-17l16 -79v-122h22v-16l8 -39h32v-17l16 -78v-185h-40v-50h-3l3 -13v-137h-40v-50h-332l-10 50h-28l-10 51l-29 2l-19 88l-3 1v338h40v55l38 1l-5 21h-2v196h346zM493 348h-40v55h-40v50h-245v-50h-38v-55h-39v-248l39 -3v-47h38v-50h245v50h40v50h-244v48h-37
v52h281l8 50h32v98zM210 300v48h203v-48h-203zM239 620h-78v-103h78v103zM415 620h-78v-103h78v103z" />
    <glyph glyph-name="igrave" unicode="&#xec;" horiz-adv-x="402" 
d="M372 128l15 -79v-185h-325l-18 90h-3v190h80v70h-18l-19 89h-3v196h15l-4 25h-3v143h171v-18l5 -31h35v-16l15 -79v-142h-7v-237h64v-16zM253 572h-39v48h-79v-50h40v-53h71zM325 98h-79v355h-118v-104h39v-251h-80v-98h238v98z" />
    <glyph glyph-name="iacute" unicode="&#xed;" horiz-adv-x="402" 
d="M372 128l15 -79v-185h-325l-18 90h-3v190h80v70h-18l-19 89h-3v196h15l-4 25h-3v143h171v-18l5 -31h35v-16l15 -79v-142h-7v-237h64v-16zM253 572h-39v48h-79v-50h40v-53h71zM325 98h-79v355h-118v-104h39v-251h-80v-98h238v98z" />
    <glyph glyph-name="icircumflex" unicode="&#xee;" horiz-adv-x="402" 
d="M78 618h26v49h179v-18l5 -31h24v-16l15 -79v-142h-19v-237h64v-16l15 -79v-185h-325l-18 90h-3v190h80v70h-18l-19 89h-3v168h-3v147zM124 517h52v53h40v-53h49v55h-28v48h-86v-48h-27v-55zM325 98h-79v355h-118v-104h39v-251h-80v-98h238v98z" />
    <glyph glyph-name="idieresis" unicode="&#xef;" horiz-adv-x="402" 
d="M372 128l15 -79v-185h-325l-18 90h-3v190h80v70h-18l-19 89h-3v78h-38l-18 90h-4v196h347v-17l16 -79v-190h-76v-237h64v-16zM146 620h-79v-103h79v103zM322 620h-79v-103h79v103zM325 98h-79v355h-118v-104h39v-251h-80v-98h238v98z" />
    <glyph glyph-name="eth" unicode="&#xf0;" horiz-adv-x="605" 
d="M34 344h40v50h40v55h135l-4 20h-110l-19 89h-2v191h253v-17l6 -33h34v-17l6 -33h34v-17l6 -33h31v-17l7 -33h33v-16l16 -84h29v-16l15 -79v-390h-44v-50h-40v-50h-365l-10 50h-30l-10 50h-30l-17 90h-4v290zM160 150v98h40v50h198v-50h40v-98h-40v-50h-198v50h-40z
M80 100h40v-50h40v-50h278v50h40v50h44v303h-44v100h-40v50h-38v50h-39v50h-40v50h-161v-98h120v-50h37v-50h41v-50h40v-52h-238v-55h-40v-50h-40v-198z" />
    <glyph glyph-name="ntilde" unicode="&#xf1;" horiz-adv-x="561" 
d="M510 374l16 -78v-432h-167l-19 90h-3v210h-16l-10 48h-69v-348h-165l-19 90h-3v545h79v119h27v49h265v-17l16 -79v-122h29v-17l7 -40l32 -1v-17zM180 517h52v53h41v-53h79v53h28v50h-53v-48h-34v48h-86v-48h-27v-55zM464 348l-40 2v53h-38v50h-284v-453h78v348h166v-48
h38v-300h80v348z" />
    <glyph glyph-name="ograve" unicode="&#xf2;" horiz-adv-x="585" 
d="M540 377l16 -78v-335h-41v-50h-40v-50h-329l-10 50h-31l-10 50h-29l-19 90h-3v340h40v55h41v50h69l-4 25h-3v143h171v-18l5 -31h35v-16l15 -79v-24h46v-16l7 -34h33v-16l8 -39h33v-17zM351 572h-39v48h-79v-50h40v-53h78v55zM373 150v-50h-162v50h-40v148h40v50h162v-50
h40v-148h-40zM494 348h-41v55h-40v50h-242v-50h-41v-55h-39v-248h39v-50h41v-50h242v50h40v50h41v248z" />
    <glyph glyph-name="oacute" unicode="&#xf3;" horiz-adv-x="585" 
d="M540 377l16 -78v-335h-41v-50h-40v-50h-329l-10 50h-31l-10 50h-29l-19 90h-3v340h40v55h41v50h69l-4 25h-3v143h171v-18l5 -31h35v-16l15 -79v-24h46v-16l7 -34h33v-16l8 -39h33v-17zM351 572h-39v48h-79v-50h40v-53h78v55zM373 150v-50h-162v50h-40v148h40v50h162v-50
h40v-148h-40zM494 348h-41v55h-40v50h-242v-50h-41v-55h-39v-248h39v-50h41v-50h242v50h40v50h41v248z" />
    <glyph glyph-name="ocircumflex" unicode="&#xf4;" horiz-adv-x="585" 
d="M540 377l16 -78v-335h-41v-50h-40v-50h-329l-10 50h-31l-10 50h-29l-19 90h-3v340h40v55h41v50h51v119h26v49h179v-18l5 -31h24v-16l15 -79v-24h34v-16l7 -34h33v-16l8 -39h33v-17zM222 517h52v53h40v-53h49v55h-28v48h-86v-48h-27v-55zM373 150v-50h-162v50h-40v148h40
v50h162v-50h40v-148h-40zM494 348h-41v55h-40v50h-242v-50h-41v-55h-39v-248h39v-50h41v-50h242v50h40v50h41v248z" />
    <glyph glyph-name="otilde" unicode="&#xf5;" horiz-adv-x="585" 
d="M540 377l16 -78v-335h-41v-50h-40v-50h-329l-10 50h-31l-10 50h-29l-19 90h-3v340h40v55h41v50h21v119h27v49h265v-17l16 -79v-72h5v-16l7 -34h33v-16l8 -39h33v-17zM192 517h52v53h41v-53h79v53h28v50h-53v-48h-34v48h-86v-48h-27v-55zM373 150v-50h-162v50h-40v148h40
v50h162v-50h40v-148h-40zM494 348h-41v55h-40v50h-242v-50h-41v-55h-39v-248h39v-50h41v-50h242v50h40v50h41v248z" />
    <glyph glyph-name="odieresis" unicode="&#xf6;" horiz-adv-x="585" 
d="M466 667v-17l16 -79v-122h17v-16l8 -39h33v-17l16 -78v-335h-41v-50h-40v-50h-329l-10 50h-31l-10 50h-29l-19 90h-3v340h40v55h41l-3 22h-3v196h347zM420 620h-79v-103h79v103zM244 620h-79v-103h79v103zM373 150v-50h-162v50h-40v148h40v50h162v-50h40v-148h-40z
M494 348h-41v55h-40v50h-242v-50h-41v-55h-39v-248h39v-50h41v-50h242v50h40v50h41v248z" />
    <glyph glyph-name="oslash" unicode="&#xf8;" horiz-adv-x="590" 
d="M540 377l16 -78v-335h-41v-50h-40v-50h-329l-10 50h-31l-10 50h-29l-19 90h-3v340h40v55h41v50h334v-16l7 -34h33v-16l8 -39h33v-17zM211 348h101v-26h-40v-50h-38v-50h-40v-72h-23v148h40v50zM373 150v-50h-162v24h64v50h40v50h40v50h44v24h14v-148h-40zM494 348h-41v55
h-40v50h-242v-50h-41v-55h-39v-248h39v-50h41v-50h242v50h40v50h41v248z" />
    <glyph glyph-name="ugrave" unicode="&#xf9;" horiz-adv-x="602" 
d="M545 483l16 -79v-540h-408l-10 50h-27l-11 48h-34l-18 90h-3v447h152l-4 25h-3v143h171v-18l6 -31h34v-16l16 -79v-24h123v-16zM360 572h-40v48h-79v-50h40v-53h79v55zM499 453h-78v-305h-43v-48h-159v48h-38v305h-85v-355h45v-48h37v-50h203v50h40v-50h78v453z" />
    <glyph glyph-name="uacute" unicode="&#xfa;" horiz-adv-x="602" 
d="M545 483l16 -79v-540h-408l-10 50h-27l-11 48h-34l-18 90h-3v447h152l-4 25h-3v143h171v-18l6 -31h34v-16l16 -79v-24h123v-16zM360 572h-40v48h-79v-50h40v-53h79v55zM499 453h-78v-305h-43v-48h-159v48h-38v305h-85v-355h45v-48h37v-50h203v50h40v-50h78v453z" />
    <glyph glyph-name="ucircumflex" unicode="&#xfb;" horiz-adv-x="602" 
d="M545 483l16 -79v-540h-408l-10 50h-27l-11 48h-34l-18 90h-3v447h134v119h27v49h178v-18l6 -31h23v-16l16 -79v-24h111v-16zM230 517h52v53h41v-53h49v55h-29v48h-86v-48h-27v-55zM499 453h-78v-305h-43v-48h-159v48h-38v305h-85v-355h45v-48h37v-50h203v50h40v-50h78
v453z" />
    <glyph glyph-name="udieresis" unicode="&#xfc;" horiz-adv-x="602" 
d="M545 483l16 -79v-540h-408l-10 50h-27l-11 48h-34l-18 90h-3v447h78v168h346v-17l16 -79v-72h55v-16zM252 620h-78v-103h78v103zM428 620h-79v-103h79v103zM499 453h-78v-305h-43v-48h-159v48h-38v305h-85v-355h45v-48h37v-50h203v50h40l7 -50h71v453z" />
    <glyph glyph-name="yacute" unicode="&#xfd;" horiz-adv-x="471" 
d="M456 483l15 -79v-186l-40 -4v-98l-42 -2v-100h-40v-100h-42v-100h-39v-50h-166l-19 90h-3v140h38v100h5l-2 10h-3v11l-16 1l-19 89l-3 1v9l-18 3l-18 89l-3 1v191h96l-5 25h-3v143h171v-18l6 -31h34v-16l16 -79v-24h100v-16zM294 572h-40v48h-78v-50h39v-53h79v55z
M410 453h-86v-104h-40v-98h-78v98h-38v104h-81v-104l40 -4v-95l38 -3v-97h38v-102h-38v-100h-38v-48h79v50h39v100h43v100h39v97l42 3v95l41 4v104z" />
    <glyph glyph-name="thorn" unicode="&#xfe;" horiz-adv-x="564" 
d="M550 377l16 -78v-270h-40v-50h-40v-50h-243v-165h-166l-19 90h-3v895h172v-17l15 -78v-155h229v-16l6 -34h33v-16l8 -39h32v-17zM385 214v-49h-204v133h41v50h163v-50h39v-84h-39zM504 348h-40v55h-40v50h-202v-50h-42v300h-78v-803h79v165h243v50h40v50h40v183z" />
    <glyph glyph-name="ydieresis" unicode="&#xff;" horiz-adv-x="471" 
d="M456 483l15 -79v-186l-40 -4v-98l-42 -2v-100h-40v-100h-42v-100h-39v-50h-166l-19 90h-3v140h38v100h5l-2 10h-3v11l-16 1l-19 89l-3 1v9l-18 3l-18 89l-3 1v191h21v168h347v-17l15 -79v-72h32v-16zM187 620h-79v-103h79v103zM362 620h-78v-103h78v103zM410 453h-86
v-104h-40v-98h-78v98h-38v104h-81v-104l40 -4v-95l38 -3v-97h38v-102h-38v-100h-38v-48h79v50h39v100h43v100h39v97l42 3v95l41 4v104z" />
    <glyph glyph-name="dotlessi" unicode="&#x131;" horiz-adv-x="402" 
d="M372 128l15 -79v-185h-325l-18 90h-3v190h80v70h-18l-19 89h-3v196h211v-16l16 -79v-260h64v-16zM325 98h-79v355h-118v-104h39v-251h-80v-98h238v98z" />
    <glyph glyph-name="Lslash" unicode="&#x141;" horiz-adv-x="582" 
d="M261 732l15 -78v-85h61v-17l15 -79v-228h-38v-46h-38v-55h304v-16l15 -79v-185h-484l-19 90h-2v61h-53l-18 89h-3v230h37v45h37v370h171v-17zM250 522v-46h-36v227h-78v-370h-37v-45h-37v-137h40v46h34v-197h397v98h-319v237h38v46h38v141h-40z" />
    <glyph glyph-name="lslash" unicode="&#x142;" horiz-adv-x="393" 
d="M287 732l15 -78v-85h60v-17l16 -79v-228h-38v-46h-36v-46h-2v-9h65v-16l16 -79v-185h-326l-17 90h-4v190h6v190h37v45h37v90h-19l-18 89h-3v191h211v-17zM275 522v-46h-35v227h-118v-98h40v-272h-37v-45h-37v-137h40v46h34v-99h-80v-98h239v98h-81v190h2v47h36v46h38v141
h-41z" />
    <glyph glyph-name="OE" unicode="&#x152;" horiz-adv-x="772" 
d="M741 128l16 -79v-185h-577l-10 50h-30l-11 50h-29l-19 90h-2v10h-19l-17 89h-4v396h40v100h39v50h41v50h582v-17l16 -78v-185h-212v-20h117v-16l16 -79v-190h-133v-20l196 6v-22zM363 200v-50h-39v-50h-79v50h-40v50h-40v303h40v50h40v50h79v-50h39v-50h40v-303h-40z
M695 98h-211v202h132v103h-132v202h211v98h-290v-50h-42v50h-158v-50h-40v-50h-40v-100h-40v-303h40v-100h40v-50h40v-50h158v50h42v-50h290v98z" />
    <glyph glyph-name="oe" unicode="&#x153;" horiz-adv-x="772" 
d="M732 377l16 -78v-185h-40v-50h-3l3 -13v-137h-40v-50h-522l-10 50h-31l-10 50h-29l-19 90h-3v340h40v55h41v50h528v-16l6 -34h33v-16l8 -39h32v-17zM468 300v48h138v-48h-138zM309 150v-50h-98v50h-40v148h40v50h98v-50l40 2v-150h-40zM686 348h-40v55h-40v50h-180v-50
h-77v50h-178v-50h-41v-55h-39v-248h39v-50h41v-50h178v50h77v-50h180v50h40v50h-179v48h-37v52h216v50h40v98z" />
    <glyph glyph-name="Scaron" unicode="&#x160;" horiz-adv-x="582" 
d="M539 329l16 -78v-289h-40v-48h-39v-50h-333l-10 50h-28l-10 48h-29l-19 90h-3v192h55l-5 26l-29 2l-19 89h-3v285l41 2v51h38v50h58l-3 19h-3v148h234v-16l15 -79v-72h37v-17l7 -33h32v-17l7 -35l33 -1v-16l16 -79v-182h-55l5 -23h34v-17zM361 870h-51v-54h-41v54h-49
v-56h29v-48h86v48h26v56zM493 300h-40v48l-39 2v55h-205v48h-38v102h38v47h165v-47h37v-50h82v98l-40 3v47h-39v50h-246v-50h-38v-47l-40 -3v-198l40 -3v-53l37 -2v-49h207v-48h37v-102h-37v-50l-165 5v45h-38v50h-80v-100h39v-48h38v-50h246v50h39v48h40v202z" />
    <glyph glyph-name="scaron" unicode="&#x161;" horiz-adv-x="512" 
d="M50 4h-3v140h15l-12 61l-3 1v243h40v50h58l-4 20h-2v148h234v-17l15 -79v-72h34v-16l6 -34h34v-16l16 -79v-140h-4l4 -18v-282h-41v-50h-329l-10 50h-30zM326 620h-51v-53h-41v53h-49v-55h29v-48h86v48h26v55zM416 248l-41 3v47h-203v51h244v54h-41v50h-242v-50h-40v-153
l40 -3v-47h204v-102h-244v-48h40v-50h242v50h41v198z" />
    <glyph glyph-name="Ydieresis" unicode="&#x178;" horiz-adv-x="541" 
d="M518 732l15 -78v-182l-44 -4v-95l-38 -4v-97l-40 -3v-105h-39v-300h-170l-19 90h-3v210h-18l-19 89h-2v17l-19 2l-18 89h-3v10l-17 2l-18 89l-3 1v8l-19 2l-17 89l-4 1v186h74v167h171v-16l5 -24v40h171v-16l15 -79v-72h59v-17zM222 870h-79v-104h79v104zM398 870h-79
v-104h79v104zM471 703h-85v-98h-39v-100h-40v-99h-77v99h-40v100h-40v98h-81v-98l40 -5v-95l38 -5v-95l40 -3v-102h40v-300h83v300h39v102l40 3v95l38 5v95l44 5v98z" />
    <glyph glyph-name="Zcaron" unicode="&#x17d;" horiz-adv-x="592" 
d="M543 128l15 -79v-185h-489l-18 90h-3v190h40v100h40v50h37v50h40v105h41v20h-177l-18 89h-3v191h137l-4 19h-3v148h234v-16l16 -79v-72h115v-17l15 -78v-185h-39v-100h-45v-50h-38v-50h-39v-105h-40v-20h186v-16zM366 870h-52v-54h-40v54h-49v-56h28v-48h86v48h27v56z
M496 98h-281v102h40v50h40v50h40v105h39v50h38v50h45v100h39v98h-402v-98h278v-102h-40v-50h-40v-50h-41v-105h-39v-50h-38v-50h-40v-100h-40v-98h402v98z" />
    <glyph glyph-name="zcaron" unicode="&#x17e;" horiz-adv-x="565" 
d="M510 128l16 -79v-185h-449l-19 90h-3v190h40v50h40v20h-58l-19 89h-3v196h117l-4 20h-3v148h234v-17l16 -79v-72h95v-16l16 -79v-135h-40v-55h-39v-50h-45v-20h108v-16zM353 620h-52v-53h-40v53h-49v-55h28v-48h86v48h27v55zM464 98h-241v52h40v50h39v50h38v50h45v49h39
v56h40v48h-362v-104h198v-51h-41v-50h-40v-50h-38v-50h-40v-50h-39v-98h362v98z" />
    <glyph glyph-name="circumflex" unicode="&#x2c6;" horiz-adv-x="325" 
d="M45 618h27v49h179v-18l5 -31h23v-16l16 -79v-142h-228l-19 90h-3v147zM92 517h51v53h41v-53h49v55h-29v48h-86v-48h-26v-55z" />
    <glyph glyph-name="caron" unicode="&#x2c7;" horiz-adv-x="320" 
d="M275 650l16 -79v-142h-27v-48h-172l-11 48h-18l-18 90h-3v148h233v-17zM229 620h-51v-53h-41v53h-49v-55h28v-48h86v48h27v55z" />
    <glyph glyph-name="ring" unicode="&#x2da;" horiz-adv-x="304" 
d="M34 667h27v48h178v-18l6 -30h23v-17l16 -79v-142h-27v-48h-173l-10 48h-19l-17 90h-4v148zM132 567v51h38v-51h-38zM80 565h29v-48h86v48h27v55h-29v48h-86v-48h-27v-55z" />
    <glyph glyph-name="tilde" unicode="&#x2dc;" horiz-adv-x="386" 
d="M48 618h27v49h265v-17l16 -79v-136h-28v-54h-259l-18 90h-3v147zM94 517h52v53h41v-53h79v53h28v50h-53v-48h-34v48h-86v-48h-27v-55z" />
    <glyph glyph-name="endash" unicode="&#x2013;" horiz-adv-x="603" 
d="M563 377l16 -78v-185h-502l-19 89h-3v191h508v-17zM517 348h-415v-98h415v98z" />
    <glyph glyph-name="emdash" unicode="&#x2014;" horiz-adv-x="755" 
d="M704 377l16 -78v-185h-643l-19 89h-3v191h649v-17zM658 348h-556v-98h556v98z" />
    <glyph glyph-name="quoteleft" unicode="&#x2018;" horiz-adv-x="321" 
d="M53 749h210v-17l16 -78v-235h-3l3 -15v-135h-164l-11 50h-30l-19 90h-2v340zM99 455h41v-50h77v48h-39v102h39v148h-118v-248z" />
    <glyph glyph-name="quoteright" unicode="&#x2019;" horiz-adv-x="320" 
d="M264 732l16 -78v-335h-40v-50h-165l-19 90h-2v140h4l-2 9h-2v241h210v-17zM218 703h-118v-148h40v-102h-40v-48h78v50h40v248z" />
    <glyph glyph-name="quotedblleft" unicode="&#x201c;" horiz-adv-x="473" 
d="M51 749h374v-17l16 -78v-235h-3l3 -15v-135h-329l-10 50h-30l-18 90h-3v340zM97 455h40v-50h78v48h-39v102h39v148h-118v-248zM261 455h39v-50h79v48h-40v102h40v148h-118v-248z" />
    <glyph glyph-name="quotedblright" unicode="&#x201d;" horiz-adv-x="489" 
d="M436 732l16 -78v-335h-40v-50h-165l-5 23v-23h-165l-19 90h-3v140h5l-2 9h-3v241h381v-17zM390 703h-118v-148h40v-102h-40v-48h78v50h40v248zM220 703h-118v-148h39v-102h-39v-48h78v50h40v248z" />
    <glyph glyph-name="bullet" unicode="&#x2022;" horiz-adv-x="374" 
d="M317 427l16 -78v-282h-256l-19 90h-3v287h262v-17zM271 398h-169v-195h169v195z" />
    <glyph glyph-name="ellipsis" unicode="&#x2026;" horiz-adv-x="771" 
d="M715 178l15 -79v-235h-210l-12 60v-60h-209l-12 60v-60h-210l-19 90h-3v240h216v-16l6 -33v49h216v-16l6 -33v49h216v-16zM447 148h-123v-148h123v148zM668 148h-123v-148h123v148zM225 148h-123v-148h123v148z" />
    <glyph glyph-name="guilsinglleft" unicode="&#x2039;" horiz-adv-x="379" 
d="M332 279l16 -78v-189h-170l-12 53l-26 2l-10 45h-30l-10 50h-30l-17 89h-4v198h40v50h39v50h38v50h176v-17l16 -78v-185h-41v-23h25v-17zM286 250h-40v48l-40 2v105h39v50h41v98h-84v-50h-37v-50h-40v-50h-40v-105h40v-50h40v-48l37 -3v-49h84v102z" />
    <glyph glyph-name="guilsinglright" unicode="&#x203a;" horiz-adv-x="379" 
d="M38 296h40v23h-19l-17 90h-4v190h176v-17l6 -33h31v-16l7 -34h33v-16l7 -34h33v-16l16 -79v-192h-40v-50h-40v-45l-38 -3v-52h-170l-17 90h-4v194zM84 148h83v49l38 3v48h40v50h40v105h-40v50h-40v50h-38v50h-83v-98h41v-50h39v-105l-40 -2v-48h-40v-102z" />
    <glyph glyph-name="Euro" unicode="&#x20ac;" 
d="M43 157l-3 1v391h40v97l38 2v51h39v50h296v-17l6 -33h36v-17l6 -35l34 -1v-16l16 -79v-182h-83v-123h67v-17l16 -78v-184l-41 -3v-50h-41v-50h-291l-10 50h-28l-11 51l-28 2l-19 88l-2 1v10l-19 2zM406 445h-239v60h40v50h38v47h121v-47h37v-50h86v98l-41 3v47h-41v50
h-204v-50h-38v-47l-39 -3v-100h-40v-303l40 -5v-95l39 -3v-47h38v-50h204v50h41v47l41 3v100h-86v-52h-37v-47h-121v47h-38v52h-40v51h170v61h-170v67h239v66z" />
    <glyph glyph-name="trademark" unicode="&#x2122;" horiz-adv-x="882" 
d="M826 732l15 -78v-540h-489l-18 89h-3v266h-34v-355h-166l-18 89h-3v266h-48l-18 89h-3v191h461v-17l6 -33h37v-17l15 -83h48v100h43v50h175v-17zM299 703h-212v-98h69v-355h79v355h64v98zM779 703h-82v-50h-42v-100h-40v-97h-77v97h-40v100h-42v50h-79v-453h79v203h39
v-104h39v-99h84v99h39v104h40v-203h82v453z" />
    <glyph glyph-name="fi" unicode="&#xfb01;" horiz-adv-x="709" 
d="M680 128l15 -79v-185h-325l-19 90h-2v190h80v70h-139v-350h-171l-18 90h-3v260h-58l-18 90h-4v196h80v149h41v50h40v50h255v-17l15 -83h151v-17l16 -78v-410h64v-16zM554 603h-79v-98h79v98zM633 98h-79v355h-326v102h39v50h120v98h-161v-50h-41v-50h-41v-149h-79v-104
h79v-350h84v349h247v-251h-80v-98h238v98z" />
    <glyph glyph-name="fl" unicode="&#xfb02;" horiz-adv-x="737" 
d="M711 128l16 -79v-185h-326l-18 90h-3v190h79v325h-130v-20h65v-16l16 -79v-190h-120v-300h-171l-18 90h-3v210h-58l-18 89h-4v196h80v200h41v50h40v50h452v-17l15 -78v-510h65v-16zM665 98h-81v605h-358v-50h-41v-50h-41v-200h-79v-103h79v-300h84v300h120v103h-120v152
h39v50h239v-507h-80v-98h239v98z" />
    <glyph glyph-name="nonmarkingreturn" horiz-adv-x="226" 
 />
    <glyph glyph-name=".null" horiz-adv-x="0" 
 />
    </font>
</defs>
</svg>
